<?xml version="1.0" encoding="UTF-8" standalone="no"?>
<!DOCTYPE svg PUBLIC "-//W3C//DTD SVG 1.1//EN" "http://www.w3.org/Graphics/SVG/1.1/DTD/svg11.dtd">
<svg width="100%" height="100%" viewBox="0 0 750 1657" version="1.1" xmlns="http://www.w3.org/2000/svg" xmlns:xlink="http://www.w3.org/1999/xlink" xml:space="preserve" xmlns:serif="http://www.serif.com/" style="fill-rule:evenodd;clip-rule:evenodd;stroke-linecap:round;stroke-linejoin:round;stroke-miterlimit:2;">
    <g id="Artboard1" transform="matrix(1,0,0,1.24154,0,0)">
        <rect x="0" y="0" width="750" height="1334" style="fill:none;"/>
        <g id="HEAT-PAD.dwg" serif:id="HEAT PAD.dwg" transform="matrix(-0.897167,8.84961e-17,-1.09871e-16,-0.722625,374.593,674.503)">
            <g transform="matrix(1,0,0,1,-418.436,-933.407)">
                <g id="CALLOUTS" transform="matrix(1,0,0,1,-75150.8,17430.9)">
                    <g id="MTEXT">
                        <g transform="matrix(-6.63028e-12,72,-72,-6.63028e-12,75495.5,-16031.8)">
                            <text x="0px" y="0px" style="font-family:'ArialMT', 'Arial';font-size:0.277px;">POTENTIOMETER</text>
                        </g>
                        <g transform="matrix(-6.63028e-12,72,-72,-6.63028e-12,75471.4,-16063.5)">
                            <text x="0px" y="0px" style="font-family:'ArialMT', 'Arial';font-size:0.277px;">(ANALOG ADJUSTMENT)</text>
                        </g>
                    </g>
                    <g id="MTEXT1" serif:id="MTEXT" transform="matrix(-6.63028e-12,72,-72,-6.63028e-12,75381.5,-16480.5)">
                        <text x="0px" y="0px" style="font-family:'ArialMT', 'Arial';font-size:0.277px;">(+)</text>
                    </g>
                    <g id="MTEXT2" serif:id="MTEXT" transform="matrix(-6.63028e-12,72,-72,-6.63028e-12,75414.3,-16476.5)">
                        <text x="0px" y="0px" style="font-family:'ArialMT', 'Arial';font-size:0.277px;">(-)</text>
                    </g>
                    <g id="MTEXT3" serif:id="MTEXT" transform="matrix(-6.63028e-12,72,-72,-6.63028e-12,75682.5,-16480.5)">
                        <text x="0px" y="0px" style="font-family:'ArialMT', 'Arial';font-size:0.277px;">(+)</text>
                    </g>
                    <g id="MTEXT4" serif:id="MTEXT" transform="matrix(-6.63028e-12,72,-72,-6.63028e-12,75715.3,-16476.5)">
                        <text x="0px" y="0px" style="font-family:'ArialMT', 'Arial';font-size:0.277px;">(-)</text>
                    </g>
                    <g id="MTEXT5" serif:id="MTEXT" transform="matrix(-6.63028e-12,72,-72,-6.63028e-12,75532,-16129.4)">
                        <text x="0px" y="0px" style="font-family:'ArialMT', 'Arial';font-size:0.277px;">(+)</text>
                    </g>
                    <g id="MTEXT6" serif:id="MTEXT" transform="matrix(-6.63028e-12,72,-72,-6.63028e-12,75564.8,-16125.4)">
                        <text x="0px" y="0px" style="font-family:'ArialMT', 'Arial';font-size:0.277px;">(-)</text>
                    </g>
                    <g id="MTEXT7" serif:id="MTEXT" transform="matrix(-6.63028e-12,72,-72,-6.63028e-12,75564.8,-15753.3)">
                        <text x="0px" y="0px" style="font-family:'ArialMT', 'Arial';font-size:0.277px;">(-)</text>
                    </g>
                    <g id="MTEXT8" serif:id="MTEXT" transform="matrix(-6.63028e-12,72,-72,-6.63028e-12,75532,-15757.3)">
                        <text x="0px" y="0px" style="font-family:'ArialMT', 'Arial';font-size:0.277px;">(+)</text>
                    </g>
                    <g id="MTEXT9" serif:id="MTEXT" transform="matrix(-6.63028e-12,72,-72,-6.63028e-12,75541.9,-15709)">
                        <text x="0px" y="0px" style="font-family:'ArialMT', 'Arial';font-size:0.686px;">5V</text>
                    </g>
                    <g id="MTEXT10" serif:id="MTEXT">
                        <g transform="matrix(-6.63028e-12,72,-72,-6.63028e-12,75414.3,-17109)">
                            <text x="0px" y="0px" style="font-family:'ArialMT', 'Arial';font-size:0.392px;">NICKEL CHROMIUM COIL</text>
                        </g>
                        <g transform="matrix(-6.63028e-12,72,-72,-6.63028e-12,75380.3,-17018)">
                            <text x="0px" y="0px" style="font-family:'ArialMT', 'Arial';font-size:0.392px;">(HEAT PAD)</text>
                        </g>
                    </g>
                    <g id="MTEXT11" serif:id="MTEXT">
                        <g transform="matrix(-6.63028e-12,72,-72,-6.63028e-12,75781.9,-17109)">
                            <text x="0px" y="0px" style="font-family:'ArialMT', 'Arial';font-size:0.392px;">NICKEL CHROMIUM COIL</text>
                        </g>
                        <g transform="matrix(-6.63028e-12,72,-72,-6.63028e-12,75747.9,-17018)">
                            <text x="0px" y="0px" style="font-family:'ArialMT', 'Arial';font-size:0.392px;">(HEAT PAD)</text>
                        </g>
                    </g>
                </g>
                <g id="Layer-1" serif:id="Layer 1" transform="matrix(1,0,0,1,-75150.8,17430.9)">
                    <path id="LINE" d="M75432.1,-16322.3L75582.6,-16161" style="fill:none;stroke:black;stroke-width:0.71px;"/>
                    <path id="LINE1" serif:id="LINE" d="M75405.3,-16311.7L75555.8,-16150.4" style="fill:none;stroke:black;stroke-width:0.71px;"/>
                    <path id="LINE2" serif:id="LINE" d="M75733.1,-16311.7L75582.6,-16150.4" style="fill:none;stroke:black;stroke-width:0.71px;"/>
                    <path id="LINE3" serif:id="LINE" d="M75706.3,-16322.3L75555.8,-16161" style="fill:none;stroke:black;stroke-width:0.71px;"/>
                    <path id="LINE4" serif:id="LINE" d="M75432.1,-16501.5L75432.1,-16322.3" style="fill:none;stroke:black;stroke-width:0.71px;"/>
                    <path id="LINE5" serif:id="LINE" d="M75405.3,-16501.5L75405.3,-16311.7" style="fill:none;stroke:black;stroke-width:0.71px;"/>
                    <path id="LINE6" serif:id="LINE" d="M75733.1,-16501.5L75733.1,-16311.7" style="fill:none;stroke:black;stroke-width:0.71px;"/>
                    <path id="LINE7" serif:id="LINE" d="M75706.3,-16501.5L75706.3,-16322.3" style="fill:none;stroke:black;stroke-width:0.71px;"/>
                    <path id="SPLINE" d="M75253.7,-16501.5C75341.5,-16501.5 75429.4,-16501.5 75517.2,-16501.5" style="fill:none;stroke:black;stroke-width:0.71px;"/>
                    <path id="SPLINE1" serif:id="SPLINE" d="M75517.2,-16501.5C75519.4,-16501.5 75521.6,-16501.9 75523.7,-16502.8C75531.1,-16505.7 75534.9,-16511.2 75534.9,-16519.2" style="fill:none;stroke:black;stroke-width:0.71px;"/>
                    <path id="SPLINE2" serif:id="SPLINE" d="M75534.9,-16519.2C75534.9,-16788.8 75534.9,-17058.4 75534.9,-17328" style="fill:none;stroke:black;stroke-width:0.71px;"/>
                    <path id="SPLINE3" serif:id="SPLINE" d="M75534.9,-17328C75534.9,-17330.3 75534.5,-17332.5 75533.6,-17334.5C75530.7,-17342 75525.2,-17345.7 75517.2,-17345.7" style="fill:none;stroke:black;stroke-width:0.71px;"/>
                    <path id="SPLINE4" serif:id="SPLINE" d="M75517.2,-17345.7C75429.4,-17345.7 75341.5,-17345.7 75253.7,-17345.7" style="fill:none;stroke:black;stroke-width:0.71px;"/>
                    <path id="SPLINE5" serif:id="SPLINE" d="M75253.7,-17345.7C75251.4,-17345.7 75249.3,-17345.3 75247.2,-17344.5C75239.7,-17341.5 75236,-17336 75236,-17328" style="fill:none;stroke:black;stroke-width:0.71px;"/>
                    <path id="SPLINE6" serif:id="SPLINE" d="M75236,-17328C75236,-17058.4 75236,-16788.8 75236,-16519.2" style="fill:none;stroke:black;stroke-width:0.71px;"/>
                    <path id="SPLINE7" serif:id="SPLINE" d="M75236,-16519.2C75236,-16516.9 75236.4,-16514.8 75237.2,-16512.7C75240.2,-16505.2 75245.7,-16501.5 75253.7,-16501.5" style="fill:none;stroke:black;stroke-width:0.71px;"/>
                    <path id="SPLINE8" serif:id="SPLINE" d="M75621.3,-16501.5C75709.1,-16501.5 75796.9,-16501.5 75884.8,-16501.5" style="fill:none;stroke:black;stroke-width:0.71px;"/>
                    <path id="SPLINE9" serif:id="SPLINE" d="M75884.8,-16501.5C75887,-16501.5 75889.2,-16501.9 75891.3,-16502.8C75898.7,-16505.7 75902.5,-16511.2 75902.5,-16519.2" style="fill:none;stroke:black;stroke-width:0.71px;"/>
                    <path id="SPLINE10" serif:id="SPLINE" d="M75902.5,-16519.2C75902.5,-16788.8 75902.5,-17058.4 75902.5,-17328" style="fill:none;stroke:black;stroke-width:0.71px;"/>
                    <path id="SPLINE11" serif:id="SPLINE" d="M75902.5,-17328C75902.5,-17330.3 75902,-17332.5 75901.2,-17334.5C75898.3,-17342 75892.8,-17345.7 75884.8,-17345.7" style="fill:none;stroke:black;stroke-width:0.71px;"/>
                    <path id="SPLINE12" serif:id="SPLINE" d="M75884.8,-17345.7C75796.9,-17345.7 75709.1,-17345.7 75621.3,-17345.7" style="fill:none;stroke:black;stroke-width:0.71px;"/>
                    <path id="SPLINE13" serif:id="SPLINE" d="M75621.3,-17345.7C75619,-17345.7 75616.8,-17345.3 75614.7,-17344.5C75607.3,-17341.5 75603.6,-17336 75603.6,-17328" style="fill:none;stroke:black;stroke-width:0.71px;"/>
                    <path id="SPLINE14" serif:id="SPLINE" d="M75603.6,-17328C75603.6,-17058.4 75603.6,-16788.8 75603.6,-16519.2" style="fill:none;stroke:black;stroke-width:0.71px;"/>
                    <path id="SPLINE15" serif:id="SPLINE" d="M75603.6,-16519.2C75603.6,-16516.9 75604,-16514.8 75604.8,-16512.7C75607.8,-16505.2 75613.2,-16501.5 75621.3,-16501.5" style="fill:none;stroke:black;stroke-width:0.71px;"/>
                    <path id="SPLINE16" serif:id="SPLINE" d="M75405.3,-16503.6C75404.3,-16503.7 75403.1,-16502.5 75403.2,-16501.5" style="fill:none;stroke:black;stroke-width:0.99px;"/>
                    <path id="SPLINE17" serif:id="SPLINE" d="M75403.2,-16501.5C75403.1,-16500.5 75404.3,-16499.4 75405.3,-16499.5" style="fill:none;stroke:black;stroke-width:0.99px;"/>
                    <path id="SPLINE18" serif:id="SPLINE" d="M75405.3,-16499.5C75406.3,-16499.4 75407.5,-16500.5 75407.4,-16501.5" style="fill:none;stroke:black;stroke-width:0.99px;"/>
                    <path id="SPLINE19" serif:id="SPLINE" d="M75407.4,-16501.5C75407.5,-16502.5 75406.3,-16503.7 75405.3,-16503.6" style="fill:none;stroke:black;stroke-width:0.99px;"/>
                    <path id="HATCH" d="M75405.3,-16503.6L75405.3,-16503.6L75405.4,-16503.6L75405.4,-16503.6L75405.4,-16503.6L75405.4,-16503.6L75405.5,-16503.6L75405.5,-16503.6L75405.5,-16503.6L75405.5,-16503.6L75405.6,-16503.6L75405.6,-16503.6L75405.6,-16503.6L75405.7,-16503.6L75405.7,-16503.6L75405.8,-16503.6L75405.8,-16503.5L75405.9,-16503.5L75405.9,-16503.5L75406,-16503.5L75406,-16503.5L75406.1,-16503.5L75406.1,-16503.4L75406.2,-16503.4L75406.2,-16503.4L75406.3,-16503.4L75406.3,-16503.3L75406.4,-16503.3L75406.4,-16503.3L75406.4,-16503.3L75406.5,-16503.2L75406.5,-16503.2L75406.6,-16503.2L75406.6,-16503.1L75406.7,-16503.1L75406.7,-16503.1L75406.7,-16503L75406.8,-16503L75406.8,-16502.9L75406.8,-16502.9L75406.9,-16502.9L75406.9,-16502.8L75406.9,-16502.8L75407,-16502.7L75407,-16502.7L75407,-16502.7L75407.1,-16502.6L75407.1,-16502.6L75407.1,-16502.5L75407.2,-16502.5L75407.2,-16502.4L75407.2,-16502.4L75407.2,-16502.3L75407.2,-16502.3L75407.3,-16502.2L75407.3,-16502.2L75407.3,-16502.2L75407.3,-16502.1L75407.3,-16502.1L75407.3,-16502L75407.4,-16502L75407.4,-16501.9L75407.4,-16501.9L75407.4,-16501.8L75407.4,-16501.8L75407.4,-16501.7L75407.4,-16501.7L75407.4,-16501.7L75407.4,-16501.7L75407.4,-16501.6L75407.4,-16501.6L75407.4,-16501.6L75407.4,-16501.6L75407.4,-16501.5L75407.4,-16501.5L75407.4,-16501.5L75407.4,-16501.5L75407.4,-16501.5L75407.4,-16501.4L75407.4,-16501.4L75407.4,-16501.4L75407.4,-16501.4L75407.4,-16501.3L75407.4,-16501.3L75407.4,-16501.3L75407.4,-16501.2L75407.4,-16501.2L75407.4,-16501.1L75407.4,-16501.1L75407.3,-16501L75407.3,-16501L75407.3,-16500.9L75407.3,-16500.9L75407.3,-16500.9L75407.3,-16500.8L75407.2,-16500.8L75407.2,-16500.7L75407.2,-16500.7L75407.2,-16500.6L75407.2,-16500.6L75407.1,-16500.5L75407.1,-16500.5L75407.1,-16500.4L75407,-16500.4L75407,-16500.4L75407,-16500.3L75406.9,-16500.3L75406.9,-16500.2L75406.9,-16500.2L75406.8,-16500.1L75406.8,-16500.1L75406.8,-16500.1L75406.7,-16500L75406.7,-16500L75406.7,-16500L75406.6,-16499.9L75406.6,-16499.9L75406.5,-16499.9L75406.5,-16499.8L75406.4,-16499.8L75406.4,-16499.8L75406.4,-16499.7L75406.3,-16499.7L75406.3,-16499.7L75406.2,-16499.7L75406.2,-16499.6L75406.1,-16499.6L75406.1,-16499.6L75406,-16499.6L75406,-16499.6L75405.9,-16499.5L75405.9,-16499.5L75405.8,-16499.5L75405.8,-16499.5L75405.7,-16499.5L75405.7,-16499.5L75405.6,-16499.5L75405.6,-16499.5L75405.6,-16499.5L75405.5,-16499.5L75405.5,-16499.4L75405.5,-16499.4L75405.5,-16499.4L75405.4,-16499.4L75405.4,-16499.4L75405.4,-16499.4L75405.4,-16499.5L75405.3,-16499.5L75405.3,-16499.5L75405.3,-16499.5L75405.3,-16499.5L75405.2,-16499.4L75405.2,-16499.4L75405.2,-16499.4L75405.2,-16499.4L75405.1,-16499.4L75405.1,-16499.4L75405.1,-16499.5L75405.1,-16499.5L75405,-16499.5L75405,-16499.5L75404.9,-16499.5L75404.9,-16499.5L75404.8,-16499.5L75404.8,-16499.5L75404.7,-16499.5L75404.7,-16499.5L75404.6,-16499.6L75404.6,-16499.6L75404.5,-16499.6L75404.5,-16499.6L75404.4,-16499.6L75404.4,-16499.7L75404.4,-16499.7L75404.3,-16499.7L75404.3,-16499.7L75404.2,-16499.8L75404.2,-16499.8L75404.1,-16499.8L75404.1,-16499.9L75404.1,-16499.9L75404,-16499.9L75404,-16500L75403.9,-16500L75403.9,-16500L75403.9,-16500.1L75403.8,-16500.1L75403.8,-16500.1L75403.7,-16500.2L75403.7,-16500.2L75403.7,-16500.3L75403.6,-16500.3L75403.6,-16500.4L75403.6,-16500.4L75403.6,-16500.4L75403.5,-16500.5L75403.5,-16500.5L75403.5,-16500.6L75403.4,-16500.6L75403.4,-16500.7L75403.4,-16500.7L75403.4,-16500.8L75403.4,-16500.8L75403.3,-16500.9L75403.3,-16500.9L75403.3,-16500.9L75403.3,-16501L75403.3,-16501L75403.3,-16501.1L75403.3,-16501.1L75403.2,-16501.2L75403.2,-16501.2L75403.2,-16501.3L75403.2,-16501.3L75403.2,-16501.3L75403.2,-16501.4L75403.2,-16501.4L75403.2,-16501.4L75403.2,-16501.4L75403.2,-16501.5L75403.2,-16501.5L75403.2,-16501.5L75403.2,-16501.5L75403.2,-16501.5L75403.2,-16501.6L75403.2,-16501.6L75403.2,-16501.6L75403.2,-16501.6L75403.2,-16501.7L75403.2,-16501.7L75403.2,-16501.7L75403.2,-16501.7L75403.2,-16501.8L75403.2,-16501.8L75403.2,-16501.9L75403.3,-16501.9L75403.3,-16502L75403.3,-16502L75403.3,-16502.1L75403.3,-16502.1L75403.3,-16502.2L75403.3,-16502.2L75403.4,-16502.2L75403.4,-16502.3L75403.4,-16502.3L75403.4,-16502.4L75403.4,-16502.4L75403.5,-16502.5L75403.5,-16502.5L75403.5,-16502.6L75403.6,-16502.6L75403.6,-16502.7L75403.6,-16502.7L75403.6,-16502.7L75403.7,-16502.8L75403.7,-16502.8L75403.7,-16502.9L75403.8,-16502.9L75403.8,-16502.9L75403.9,-16503L75403.9,-16503L75403.9,-16503.1L75404,-16503.1L75404,-16503.1L75404.1,-16503.2L75404.1,-16503.2L75404.1,-16503.2L75404.2,-16503.3L75404.2,-16503.3L75404.3,-16503.3L75404.3,-16503.3L75404.4,-16503.4L75404.4,-16503.4L75404.4,-16503.4L75404.5,-16503.4L75404.5,-16503.5L75404.6,-16503.5L75404.6,-16503.5L75404.7,-16503.5L75404.7,-16503.5L75404.8,-16503.5L75404.8,-16503.6L75404.9,-16503.6L75404.9,-16503.6L75405,-16503.6L75405,-16503.6L75405.1,-16503.6L75405.1,-16503.6L75405.1,-16503.6L75405.1,-16503.6L75405.2,-16503.6L75405.2,-16503.6L75405.2,-16503.6L75405.2,-16503.6L75405.3,-16503.6L75405.3,-16503.6L75405.3,-16503.6Z"/>
                    <path id="SPLINE20" serif:id="SPLINE" d="M75432.1,-16503.6C75431.1,-16503.7 75429.9,-16502.5 75430,-16501.5" style="fill:none;stroke:black;stroke-width:0.99px;"/>
                    <path id="SPLINE21" serif:id="SPLINE" d="M75430,-16501.5C75429.9,-16500.5 75431.1,-16499.4 75432.1,-16499.5" style="fill:none;stroke:black;stroke-width:0.99px;"/>
                    <path id="SPLINE22" serif:id="SPLINE" d="M75432.1,-16499.5C75433.1,-16499.4 75434.3,-16500.5 75434.2,-16501.5" style="fill:none;stroke:black;stroke-width:0.99px;"/>
                    <path id="SPLINE23" serif:id="SPLINE" d="M75434.2,-16501.5C75434.3,-16502.5 75433.1,-16503.7 75432.1,-16503.6" style="fill:none;stroke:black;stroke-width:0.99px;"/>
                    <path id="HATCH1" serif:id="HATCH" d="M75432.1,-16503.6L75432.1,-16503.6L75432.2,-16503.6L75432.2,-16503.6L75432.2,-16503.6L75432.2,-16503.6L75432.3,-16503.6L75432.3,-16503.6L75432.3,-16503.6L75432.3,-16503.6L75432.3,-16503.6L75432.4,-16503.6L75432.4,-16503.6L75432.5,-16503.6L75432.5,-16503.6L75432.6,-16503.6L75432.6,-16503.5L75432.7,-16503.5L75432.7,-16503.5L75432.8,-16503.5L75432.8,-16503.5L75432.9,-16503.5L75432.9,-16503.4L75433,-16503.4L75433,-16503.4L75433.1,-16503.4L75433.1,-16503.3L75433.2,-16503.3L75433.2,-16503.3L75433.2,-16503.3L75433.3,-16503.2L75433.3,-16503.2L75433.4,-16503.2L75433.4,-16503.1L75433.4,-16503.1L75433.5,-16503.1L75433.5,-16503L75433.6,-16503L75433.6,-16502.9L75433.6,-16502.9L75433.7,-16502.9L75433.7,-16502.8L75433.7,-16502.8L75433.8,-16502.7L75433.8,-16502.7L75433.8,-16502.7L75433.9,-16502.6L75433.9,-16502.6L75433.9,-16502.5L75433.9,-16502.5L75434,-16502.4L75434,-16502.4L75434,-16502.3L75434,-16502.3L75434.1,-16502.2L75434.1,-16502.2L75434.1,-16502.2L75434.1,-16502.1L75434.1,-16502.1L75434.1,-16502L75434.2,-16502L75434.2,-16501.9L75434.2,-16501.9L75434.2,-16501.8L75434.2,-16501.8L75434.2,-16501.7L75434.2,-16501.7L75434.2,-16501.7L75434.2,-16501.7L75434.2,-16501.6L75434.2,-16501.6L75434.2,-16501.6L75434.2,-16501.6L75434.2,-16501.5L75434.2,-16501.5L75434.2,-16501.5L75434.2,-16501.5L75434.2,-16501.5L75434.2,-16501.4L75434.2,-16501.4L75434.2,-16501.4L75434.2,-16501.4L75434.2,-16501.3L75434.2,-16501.3L75434.2,-16501.3L75434.2,-16501.2L75434.2,-16501.2L75434.2,-16501.1L75434.2,-16501.1L75434.1,-16501L75434.1,-16501L75434.1,-16500.9L75434.1,-16500.9L75434.1,-16500.9L75434.1,-16500.8L75434,-16500.8L75434,-16500.7L75434,-16500.7L75434,-16500.6L75433.9,-16500.6L75433.9,-16500.5L75433.9,-16500.5L75433.9,-16500.4L75433.8,-16500.4L75433.8,-16500.4L75433.8,-16500.3L75433.7,-16500.3L75433.7,-16500.2L75433.7,-16500.2L75433.6,-16500.1L75433.6,-16500.1L75433.6,-16500.1L75433.5,-16500L75433.5,-16500L75433.4,-16500L75433.4,-16499.9L75433.4,-16499.9L75433.3,-16499.9L75433.3,-16499.8L75433.2,-16499.8L75433.2,-16499.8L75433.2,-16499.7L75433.1,-16499.7L75433.1,-16499.7L75433,-16499.7L75433,-16499.6L75432.9,-16499.6L75432.9,-16499.6L75432.8,-16499.6L75432.8,-16499.6L75432.7,-16499.5L75432.7,-16499.5L75432.6,-16499.5L75432.6,-16499.5L75432.5,-16499.5L75432.5,-16499.5L75432.4,-16499.5L75432.4,-16499.5L75432.3,-16499.5L75432.3,-16499.5L75432.3,-16499.4L75432.3,-16499.4L75432.3,-16499.4L75432.2,-16499.4L75432.2,-16499.4L75432.2,-16499.4L75432.2,-16499.5L75432.1,-16499.5L75432.1,-16499.5L75432.1,-16499.5L75432.1,-16499.5L75432,-16499.4L75432,-16499.4L75432,-16499.4L75432,-16499.4L75431.9,-16499.4L75431.9,-16499.4L75431.9,-16499.5L75431.9,-16499.5L75431.8,-16499.5L75431.8,-16499.5L75431.7,-16499.5L75431.7,-16499.5L75431.6,-16499.5L75431.6,-16499.5L75431.5,-16499.5L75431.5,-16499.5L75431.4,-16499.6L75431.4,-16499.6L75431.3,-16499.6L75431.3,-16499.6L75431.2,-16499.6L75431.2,-16499.7L75431.2,-16499.7L75431.1,-16499.7L75431.1,-16499.7L75431,-16499.8L75431,-16499.8L75430.9,-16499.8L75430.9,-16499.9L75430.9,-16499.9L75430.8,-16499.9L75430.8,-16500L75430.7,-16500L75430.7,-16500L75430.7,-16500.1L75430.6,-16500.1L75430.6,-16500.1L75430.5,-16500.2L75430.5,-16500.2L75430.5,-16500.3L75430.4,-16500.3L75430.4,-16500.4L75430.4,-16500.4L75430.3,-16500.4L75430.3,-16500.5L75430.3,-16500.5L75430.3,-16500.6L75430.2,-16500.6L75430.2,-16500.7L75430.2,-16500.7L75430.2,-16500.8L75430.2,-16500.8L75430.1,-16500.9L75430.1,-16500.9L75430.1,-16500.9L75430.1,-16501L75430.1,-16501L75430.1,-16501.1L75430.1,-16501.1L75430,-16501.2L75430,-16501.2L75430,-16501.3L75430,-16501.3L75430,-16501.3L75430,-16501.4L75430,-16501.4L75430,-16501.4L75430,-16501.4L75430,-16501.5L75430,-16501.5L75430,-16501.5L75430,-16501.5L75430,-16501.5L75430,-16501.6L75430,-16501.6L75430,-16501.6L75430,-16501.6L75430,-16501.7L75430,-16501.7L75430,-16501.7L75430,-16501.7L75430,-16501.8L75430,-16501.8L75430,-16501.9L75430.1,-16501.9L75430.1,-16502L75430.1,-16502L75430.1,-16502.1L75430.1,-16502.1L75430.1,-16502.2L75430.1,-16502.2L75430.2,-16502.2L75430.2,-16502.3L75430.2,-16502.3L75430.2,-16502.4L75430.2,-16502.4L75430.3,-16502.5L75430.3,-16502.5L75430.3,-16502.6L75430.3,-16502.6L75430.4,-16502.7L75430.4,-16502.7L75430.4,-16502.7L75430.5,-16502.8L75430.5,-16502.8L75430.5,-16502.9L75430.6,-16502.9L75430.6,-16502.9L75430.7,-16503L75430.7,-16503L75430.7,-16503.1L75430.8,-16503.1L75430.8,-16503.1L75430.9,-16503.2L75430.9,-16503.2L75430.9,-16503.2L75431,-16503.3L75431,-16503.3L75431.1,-16503.3L75431.1,-16503.3L75431.2,-16503.4L75431.2,-16503.4L75431.2,-16503.4L75431.3,-16503.4L75431.3,-16503.5L75431.4,-16503.5L75431.4,-16503.5L75431.5,-16503.5L75431.5,-16503.5L75431.6,-16503.5L75431.6,-16503.6L75431.7,-16503.6L75431.7,-16503.6L75431.8,-16503.6L75431.8,-16503.6L75431.9,-16503.6L75431.9,-16503.6L75431.9,-16503.6L75431.9,-16503.6L75432,-16503.6L75432,-16503.6L75432,-16503.6L75432,-16503.6L75432.1,-16503.6L75432.1,-16503.6L75432.1,-16503.6Z"/>
                    <path id="SPLINE24" serif:id="SPLINE" d="M75432.1,-16324.3C75431.1,-16324.4 75429.9,-16323.3 75430,-16322.3" style="fill:none;stroke:black;stroke-width:0.99px;"/>
                    <path id="SPLINE25" serif:id="SPLINE" d="M75430,-16322.3C75429.9,-16321.2 75431.1,-16320.1 75432.1,-16320.2" style="fill:none;stroke:black;stroke-width:0.99px;"/>
                    <path id="SPLINE26" serif:id="SPLINE" d="M75432.1,-16320.2C75433.1,-16320.1 75434.3,-16321.2 75434.2,-16322.3" style="fill:none;stroke:black;stroke-width:0.99px;"/>
                    <path id="SPLINE27" serif:id="SPLINE" d="M75434.2,-16322.3C75434.3,-16323.3 75433.1,-16324.4 75432.1,-16324.3" style="fill:none;stroke:black;stroke-width:0.99px;"/>
                    <path id="HATCH2" serif:id="HATCH" d="M75432.1,-16324.3L75432.1,-16324.3L75432.2,-16324.3L75432.2,-16324.3L75432.2,-16324.3L75432.2,-16324.3L75432.3,-16324.3L75432.3,-16324.3L75432.3,-16324.3L75432.3,-16324.3L75432.3,-16324.3L75432.4,-16324.3L75432.4,-16324.3L75432.5,-16324.3L75432.5,-16324.3L75432.6,-16324.3L75432.6,-16324.3L75432.7,-16324.3L75432.7,-16324.3L75432.8,-16324.2L75432.8,-16324.2L75432.9,-16324.2L75432.9,-16324.2L75433,-16324.2L75433,-16324.1L75433.1,-16324.1L75433.1,-16324.1L75433.2,-16324.1L75433.2,-16324L75433.2,-16324L75433.3,-16324L75433.3,-16323.9L75433.4,-16323.9L75433.4,-16323.9L75433.4,-16323.8L75433.5,-16323.8L75433.5,-16323.8L75433.6,-16323.7L75433.6,-16323.7L75433.6,-16323.6L75433.7,-16323.6L75433.7,-16323.6L75433.7,-16323.5L75433.8,-16323.5L75433.8,-16323.4L75433.8,-16323.4L75433.9,-16323.3L75433.9,-16323.3L75433.9,-16323.3L75433.9,-16323.2L75434,-16323.2L75434,-16323.1L75434,-16323.1L75434,-16323L75434.1,-16323L75434.1,-16322.9L75434.1,-16322.9L75434.1,-16322.8L75434.1,-16322.8L75434.1,-16322.7L75434.2,-16322.7L75434.2,-16322.6L75434.2,-16322.6L75434.2,-16322.6L75434.2,-16322.5L75434.2,-16322.5L75434.2,-16322.5L75434.2,-16322.4L75434.2,-16322.4L75434.2,-16322.4L75434.2,-16322.4L75434.2,-16322.3L75434.2,-16322.3L75434.2,-16322.3L75434.2,-16322.3L75434.2,-16322.2L75434.2,-16322.2L75434.2,-16322.2L75434.2,-16322.2L75434.2,-16322.1L75434.2,-16322.1L75434.2,-16322.1L75434.2,-16322.1L75434.2,-16322L75434.2,-16322L75434.2,-16322L75434.2,-16321.9L75434.2,-16321.9L75434.2,-16321.8L75434.1,-16321.8L75434.1,-16321.7L75434.1,-16321.7L75434.1,-16321.6L75434.1,-16321.6L75434.1,-16321.5L75434,-16321.5L75434,-16321.4L75434,-16321.4L75434,-16321.4L75433.9,-16321.3L75433.9,-16321.3L75433.9,-16321.2L75433.9,-16321.2L75433.8,-16321.1L75433.8,-16321.1L75433.8,-16321L75433.7,-16321L75433.7,-16321L75433.7,-16320.9L75433.6,-16320.9L75433.6,-16320.8L75433.6,-16320.8L75433.5,-16320.8L75433.5,-16320.7L75433.4,-16320.7L75433.4,-16320.7L75433.4,-16320.6L75433.3,-16320.6L75433.3,-16320.6L75433.2,-16320.5L75433.2,-16320.5L75433.2,-16320.5L75433.1,-16320.4L75433.1,-16320.4L75433,-16320.4L75433,-16320.4L75432.9,-16320.4L75432.9,-16320.3L75432.8,-16320.3L75432.8,-16320.3L75432.7,-16320.3L75432.7,-16320.3L75432.6,-16320.2L75432.6,-16320.2L75432.5,-16320.2L75432.5,-16320.2L75432.4,-16320.2L75432.4,-16320.2L75432.3,-16320.2L75432.3,-16320.2L75432.3,-16320.2L75432.3,-16320.2L75432.3,-16320.2L75432.2,-16320.2L75432.2,-16320.2L75432.2,-16320.2L75432.2,-16320.2L75432.1,-16320.2L75432.1,-16320.2L75432.1,-16320.2L75432.1,-16320.2L75432,-16320.2L75432,-16320.2L75432,-16320.2L75432,-16320.2L75431.9,-16320.2L75431.9,-16320.2L75431.9,-16320.2L75431.9,-16320.2L75431.8,-16320.2L75431.8,-16320.2L75431.7,-16320.2L75431.7,-16320.2L75431.6,-16320.2L75431.6,-16320.2L75431.5,-16320.3L75431.5,-16320.3L75431.4,-16320.3L75431.4,-16320.3L75431.3,-16320.3L75431.3,-16320.4L75431.2,-16320.4L75431.2,-16320.4L75431.2,-16320.4L75431.1,-16320.4L75431.1,-16320.5L75431,-16320.5L75431,-16320.5L75430.9,-16320.6L75430.9,-16320.6L75430.9,-16320.6L75430.8,-16320.7L75430.8,-16320.7L75430.7,-16320.7L75430.7,-16320.8L75430.7,-16320.8L75430.6,-16320.8L75430.6,-16320.9L75430.5,-16320.9L75430.5,-16321L75430.5,-16321L75430.4,-16321L75430.4,-16321.1L75430.4,-16321.1L75430.3,-16321.2L75430.3,-16321.2L75430.3,-16321.3L75430.3,-16321.3L75430.2,-16321.4L75430.2,-16321.4L75430.2,-16321.4L75430.2,-16321.5L75430.2,-16321.5L75430.1,-16321.6L75430.1,-16321.6L75430.1,-16321.7L75430.1,-16321.7L75430.1,-16321.8L75430.1,-16321.8L75430.1,-16321.9L75430,-16321.9L75430,-16322L75430,-16322L75430,-16322L75430,-16322.1L75430,-16322.1L75430,-16322.1L75430,-16322.1L75430,-16322.2L75430,-16322.2L75430,-16322.2L75430,-16322.2L75430,-16322.3L75430,-16322.3L75430,-16322.3L75430,-16322.3L75430,-16322.4L75430,-16322.4L75430,-16322.4L75430,-16322.4L75430,-16322.5L75430,-16322.5L75430,-16322.5L75430,-16322.6L75430,-16322.6L75430.1,-16322.6L75430.1,-16322.7L75430.1,-16322.7L75430.1,-16322.8L75430.1,-16322.8L75430.1,-16322.9L75430.1,-16322.9L75430.2,-16323L75430.2,-16323L75430.2,-16323.1L75430.2,-16323.1L75430.2,-16323.2L75430.3,-16323.2L75430.3,-16323.3L75430.3,-16323.3L75430.3,-16323.3L75430.4,-16323.4L75430.4,-16323.4L75430.4,-16323.5L75430.5,-16323.5L75430.5,-16323.6L75430.5,-16323.6L75430.6,-16323.6L75430.6,-16323.7L75430.7,-16323.7L75430.7,-16323.8L75430.7,-16323.8L75430.8,-16323.8L75430.8,-16323.9L75430.9,-16323.9L75430.9,-16323.9L75430.9,-16324L75431,-16324L75431,-16324L75431.1,-16324.1L75431.1,-16324.1L75431.2,-16324.1L75431.2,-16324.1L75431.2,-16324.2L75431.3,-16324.2L75431.3,-16324.2L75431.4,-16324.2L75431.4,-16324.2L75431.5,-16324.3L75431.5,-16324.3L75431.6,-16324.3L75431.6,-16324.3L75431.7,-16324.3L75431.7,-16324.3L75431.8,-16324.3L75431.8,-16324.3L75431.9,-16324.3L75431.9,-16324.3L75431.9,-16324.3L75431.9,-16324.3L75432,-16324.3L75432,-16324.3L75432,-16324.3L75432,-16324.3L75432.1,-16324.3L75432.1,-16324.3L75432.1,-16324.3Z"/>
                    <path id="SPLINE28" serif:id="SPLINE" d="M75405.3,-16313.8C75404.3,-16313.9 75403.1,-16312.7 75403.2,-16311.7" style="fill:none;stroke:black;stroke-width:0.99px;"/>
                    <path id="SPLINE29" serif:id="SPLINE" d="M75403.2,-16311.7C75403.1,-16310.7 75404.3,-16309.5 75405.3,-16309.6" style="fill:none;stroke:black;stroke-width:0.99px;"/>
                    <path id="SPLINE30" serif:id="SPLINE" d="M75405.3,-16309.6C75406.3,-16309.5 75407.5,-16310.7 75407.4,-16311.7" style="fill:none;stroke:black;stroke-width:0.99px;"/>
                    <path id="SPLINE31" serif:id="SPLINE" d="M75407.4,-16311.7C75407.5,-16312.7 75406.3,-16313.9 75405.3,-16313.8" style="fill:none;stroke:black;stroke-width:0.99px;"/>
                    <path id="HATCH3" serif:id="HATCH" d="M75405.3,-16313.8L75405.3,-16313.8L75405.4,-16313.8L75405.4,-16313.8L75405.4,-16313.8L75405.4,-16313.8L75405.5,-16313.8L75405.5,-16313.8L75405.5,-16313.8L75405.5,-16313.8L75405.6,-16313.8L75405.6,-16313.8L75405.6,-16313.8L75405.7,-16313.8L75405.7,-16313.7L75405.8,-16313.7L75405.8,-16313.7L75405.9,-16313.7L75405.9,-16313.7L75406,-16313.7L75406,-16313.7L75406.1,-16313.6L75406.1,-16313.6L75406.2,-16313.6L75406.2,-16313.6L75406.3,-16313.5L75406.3,-16313.5L75406.4,-16313.5L75406.4,-16313.5L75406.4,-16313.4L75406.5,-16313.4L75406.5,-16313.4L75406.6,-16313.3L75406.6,-16313.3L75406.7,-16313.3L75406.7,-16313.2L75406.7,-16313.2L75406.8,-16313.2L75406.8,-16313.1L75406.8,-16313.1L75406.9,-16313L75406.9,-16313L75406.9,-16313L75407,-16312.9L75407,-16312.9L75407,-16312.8L75407.1,-16312.8L75407.1,-16312.7L75407.1,-16312.7L75407.2,-16312.7L75407.2,-16312.6L75407.2,-16312.6L75407.2,-16312.5L75407.2,-16312.5L75407.3,-16312.4L75407.3,-16312.4L75407.3,-16312.3L75407.3,-16312.3L75407.3,-16312.2L75407.3,-16312.2L75407.4,-16312.1L75407.4,-16312.1L75407.4,-16312L75407.4,-16312L75407.4,-16311.9L75407.4,-16311.9L75407.4,-16311.9L75407.4,-16311.9L75407.4,-16311.8L75407.4,-16311.8L75407.4,-16311.8L75407.4,-16311.8L75407.4,-16311.7L75407.4,-16311.7L75407.4,-16311.7L75407.4,-16311.7L75407.4,-16311.7L75407.4,-16311.6L75407.4,-16311.6L75407.4,-16311.6L75407.4,-16311.6L75407.4,-16311.5L75407.4,-16311.5L75407.4,-16311.5L75407.4,-16311.5L75407.4,-16311.4L75407.4,-16311.4L75407.4,-16311.3L75407.4,-16311.3L75407.3,-16311.2L75407.3,-16311.2L75407.3,-16311.1L75407.3,-16311.1L75407.3,-16311L75407.3,-16311L75407.2,-16310.9L75407.2,-16310.9L75407.2,-16310.8L75407.2,-16310.8L75407.2,-16310.7L75407.1,-16310.7L75407.1,-16310.7L75407.1,-16310.6L75407,-16310.6L75407,-16310.5L75407,-16310.5L75406.9,-16310.4L75406.9,-16310.4L75406.9,-16310.4L75406.8,-16310.3L75406.8,-16310.3L75406.8,-16310.2L75406.7,-16310.2L75406.7,-16310.2L75406.7,-16310.1L75406.6,-16310.1L75406.6,-16310.1L75406.5,-16310L75406.5,-16310L75406.4,-16310L75406.4,-16309.9L75406.4,-16309.9L75406.3,-16309.9L75406.3,-16309.9L75406.2,-16309.8L75406.2,-16309.8L75406.1,-16309.8L75406.1,-16309.8L75406,-16309.7L75406,-16309.7L75405.9,-16309.7L75405.9,-16309.7L75405.8,-16309.7L75405.8,-16309.7L75405.7,-16309.7L75405.7,-16309.6L75405.6,-16309.6L75405.6,-16309.6L75405.6,-16309.6L75405.5,-16309.6L75405.5,-16309.6L75405.5,-16309.6L75405.5,-16309.6L75405.4,-16309.6L75405.4,-16309.6L75405.4,-16309.6L75405.4,-16309.6L75405.3,-16309.6L75405.3,-16309.6L75405.3,-16309.6L75405.3,-16309.6L75405.2,-16309.6L75405.2,-16309.6L75405.2,-16309.6L75405.2,-16309.6L75405.1,-16309.6L75405.1,-16309.6L75405.1,-16309.6L75405.1,-16309.6L75405,-16309.6L75405,-16309.6L75404.9,-16309.6L75404.9,-16309.7L75404.8,-16309.7L75404.8,-16309.7L75404.7,-16309.7L75404.7,-16309.7L75404.6,-16309.7L75404.6,-16309.7L75404.5,-16309.8L75404.5,-16309.8L75404.4,-16309.8L75404.4,-16309.8L75404.4,-16309.9L75404.3,-16309.9L75404.3,-16309.9L75404.2,-16309.9L75404.2,-16310L75404.1,-16310L75404.1,-16310L75404.1,-16310.1L75404,-16310.1L75404,-16310.1L75403.9,-16310.2L75403.9,-16310.2L75403.9,-16310.2L75403.8,-16310.3L75403.8,-16310.3L75403.7,-16310.4L75403.7,-16310.4L75403.7,-16310.4L75403.6,-16310.5L75403.6,-16310.5L75403.6,-16310.6L75403.6,-16310.6L75403.5,-16310.7L75403.5,-16310.7L75403.5,-16310.7L75403.4,-16310.8L75403.4,-16310.8L75403.4,-16310.9L75403.4,-16310.9L75403.4,-16311L75403.3,-16311L75403.3,-16311.1L75403.3,-16311.1L75403.3,-16311.2L75403.3,-16311.2L75403.3,-16311.3L75403.3,-16311.3L75403.2,-16311.4L75403.2,-16311.4L75403.2,-16311.5L75403.2,-16311.5L75403.2,-16311.5L75403.2,-16311.5L75403.2,-16311.6L75403.2,-16311.6L75403.2,-16311.6L75403.2,-16311.6L75403.2,-16311.7L75403.2,-16311.7L75403.2,-16311.7L75403.2,-16311.7L75403.2,-16311.7L75403.2,-16311.8L75403.2,-16311.8L75403.2,-16311.8L75403.2,-16311.8L75403.2,-16311.9L75403.2,-16311.9L75403.2,-16311.9L75403.2,-16311.9L75403.2,-16312L75403.2,-16312L75403.3,-16312.1L75403.3,-16312.1L75403.3,-16312.2L75403.3,-16312.2L75403.3,-16312.3L75403.3,-16312.3L75403.3,-16312.4L75403.4,-16312.4L75403.4,-16312.5L75403.4,-16312.5L75403.4,-16312.6L75403.4,-16312.6L75403.5,-16312.7L75403.5,-16312.7L75403.5,-16312.7L75403.6,-16312.8L75403.6,-16312.8L75403.6,-16312.9L75403.6,-16312.9L75403.7,-16313L75403.7,-16313L75403.7,-16313L75403.8,-16313.1L75403.8,-16313.1L75403.9,-16313.2L75403.9,-16313.2L75403.9,-16313.2L75404,-16313.3L75404,-16313.3L75404.1,-16313.3L75404.1,-16313.4L75404.1,-16313.4L75404.2,-16313.4L75404.2,-16313.5L75404.3,-16313.5L75404.3,-16313.5L75404.4,-16313.5L75404.4,-16313.6L75404.4,-16313.6L75404.5,-16313.6L75404.5,-16313.6L75404.6,-16313.7L75404.6,-16313.7L75404.7,-16313.7L75404.7,-16313.7L75404.8,-16313.7L75404.8,-16313.7L75404.9,-16313.7L75404.9,-16313.8L75405,-16313.8L75405,-16313.8L75405.1,-16313.8L75405.1,-16313.8L75405.1,-16313.8L75405.1,-16313.8L75405.2,-16313.8L75405.2,-16313.8L75405.2,-16313.8L75405.2,-16313.8L75405.3,-16313.8L75405.3,-16313.8L75405.3,-16313.8Z"/>
                    <path id="SPLINE32" serif:id="SPLINE" d="M75582.6,-16152.5C75581.6,-16152.6 75580.5,-16151.4 75580.6,-16150.4" style="fill:none;stroke:black;stroke-width:0.99px;"/>
                    <path id="SPLINE33" serif:id="SPLINE" d="M75580.6,-16150.4C75580.5,-16149.4 75581.6,-16148.3 75582.6,-16148.4" style="fill:none;stroke:black;stroke-width:0.99px;"/>
                    <path id="SPLINE34" serif:id="SPLINE" d="M75582.6,-16148.4C75583.6,-16148.3 75584.8,-16149.4 75584.7,-16150.4" style="fill:none;stroke:black;stroke-width:0.99px;"/>
                    <path id="SPLINE35" serif:id="SPLINE" d="M75584.7,-16150.4C75584.8,-16151.4 75583.6,-16152.6 75582.6,-16152.5" style="fill:none;stroke:black;stroke-width:0.99px;"/>
                    <path id="HATCH4" serif:id="HATCH" d="M75582.6,-16152.5L75582.7,-16152.5L75582.7,-16152.5L75582.7,-16152.5L75582.7,-16152.5L75582.7,-16152.5L75582.8,-16152.5L75582.8,-16152.5L75582.8,-16152.5L75582.8,-16152.5L75582.9,-16152.5L75582.9,-16152.5L75583,-16152.5L75583,-16152.5L75583.1,-16152.5L75583.1,-16152.5L75583.2,-16152.5L75583.2,-16152.4L75583.3,-16152.4L75583.3,-16152.4L75583.3,-16152.4L75583.4,-16152.4L75583.4,-16152.3L75583.5,-16152.3L75583.5,-16152.3L75583.6,-16152.3L75583.6,-16152.2L75583.7,-16152.2L75583.7,-16152.2L75583.8,-16152.2L75583.8,-16152.1L75583.8,-16152.1L75583.9,-16152.1L75583.9,-16152L75584,-16152L75584,-16152L75584,-16151.9L75584.1,-16151.9L75584.1,-16151.8L75584.2,-16151.8L75584.2,-16151.8L75584.2,-16151.7L75584.3,-16151.7L75584.3,-16151.6L75584.3,-16151.6L75584.4,-16151.6L75584.4,-16151.5L75584.4,-16151.5L75584.4,-16151.4L75584.5,-16151.4L75584.5,-16151.3L75584.5,-16151.3L75584.5,-16151.2L75584.6,-16151.2L75584.6,-16151.2L75584.6,-16151.1L75584.6,-16151.1L75584.6,-16151L75584.6,-16151L75584.7,-16150.9L75584.7,-16150.9L75584.7,-16150.8L75584.7,-16150.8L75584.7,-16150.7L75584.7,-16150.7L75584.7,-16150.6L75584.7,-16150.6L75584.7,-16150.6L75584.7,-16150.6L75584.7,-16150.6L75584.7,-16150.5L75584.7,-16150.5L75584.7,-16150.5L75584.7,-16150.5L75584.7,-16150.4L75584.7,-16150.4L75584.7,-16150.4L75584.7,-16150.4L75584.7,-16150.3L75584.7,-16150.3L75584.7,-16150.3L75584.7,-16150.3L75584.7,-16150.2L75584.7,-16150.2L75584.7,-16150.2L75584.7,-16150.1L75584.7,-16150.1L75584.7,-16150L75584.7,-16150L75584.7,-16149.9L75584.6,-16149.9L75584.6,-16149.9L75584.6,-16149.8L75584.6,-16149.8L75584.6,-16149.7L75584.6,-16149.7L75584.5,-16149.6L75584.5,-16149.6L75584.5,-16149.5L75584.5,-16149.5L75584.4,-16149.4L75584.4,-16149.4L75584.4,-16149.3L75584.4,-16149.3L75584.3,-16149.3L75584.3,-16149.2L75584.3,-16149.2L75584.2,-16149.1L75584.2,-16149.1L75584.2,-16149.1L75584.1,-16149L75584.1,-16149L75584,-16148.9L75584,-16148.9L75584,-16148.9L75583.9,-16148.8L75583.9,-16148.8L75583.8,-16148.8L75583.8,-16148.7L75583.8,-16148.7L75583.7,-16148.7L75583.7,-16148.6L75583.6,-16148.6L75583.6,-16148.6L75583.5,-16148.6L75583.5,-16148.5L75583.4,-16148.5L75583.4,-16148.5L75583.3,-16148.5L75583.3,-16148.5L75583.3,-16148.4L75583.2,-16148.4L75583.2,-16148.4L75583.1,-16148.4L75583.1,-16148.4L75583,-16148.4L75583,-16148.4L75582.9,-16148.4L75582.9,-16148.4L75582.8,-16148.4L75582.8,-16148.4L75582.8,-16148.4L75582.8,-16148.4L75582.7,-16148.4L75582.7,-16148.4L75582.7,-16148.4L75582.7,-16148.4L75582.7,-16148.4L75582.6,-16148.4L75582.6,-16148.4L75582.6,-16148.4L75582.6,-16148.4L75582.5,-16148.4L75582.5,-16148.4L75582.5,-16148.4L75582.5,-16148.4L75582.4,-16148.4L75582.4,-16148.4L75582.4,-16148.4L75582.3,-16148.4L75582.3,-16148.4L75582.2,-16148.4L75582.2,-16148.4L75582.1,-16148.4L75582.1,-16148.4L75582,-16148.4L75582,-16148.4L75582,-16148.5L75581.9,-16148.5L75581.9,-16148.5L75581.8,-16148.5L75581.8,-16148.5L75581.7,-16148.6L75581.7,-16148.6L75581.6,-16148.6L75581.6,-16148.6L75581.5,-16148.7L75581.5,-16148.7L75581.5,-16148.7L75581.4,-16148.8L75581.4,-16148.8L75581.3,-16148.8L75581.3,-16148.9L75581.2,-16148.9L75581.2,-16148.9L75581.2,-16149L75581.1,-16149L75581.1,-16149.1L75581.1,-16149.1L75581,-16149.1L75581,-16149.2L75581,-16149.2L75580.9,-16149.3L75580.9,-16149.3L75580.9,-16149.3L75580.8,-16149.4L75580.8,-16149.4L75580.8,-16149.5L75580.8,-16149.5L75580.7,-16149.6L75580.7,-16149.6L75580.7,-16149.7L75580.7,-16149.7L75580.7,-16149.8L75580.6,-16149.8L75580.6,-16149.9L75580.6,-16149.9L75580.6,-16149.9L75580.6,-16150L75580.6,-16150L75580.6,-16150.1L75580.6,-16150.1L75580.6,-16150.2L75580.6,-16150.2L75580.6,-16150.2L75580.6,-16150.3L75580.5,-16150.3L75580.5,-16150.3L75580.5,-16150.3L75580.6,-16150.4L75580.6,-16150.4L75580.6,-16150.4L75580.6,-16150.4L75580.6,-16150.5L75580.6,-16150.5L75580.6,-16150.5L75580.5,-16150.5L75580.5,-16150.6L75580.5,-16150.6L75580.6,-16150.6L75580.6,-16150.6L75580.6,-16150.6L75580.6,-16150.7L75580.6,-16150.7L75580.6,-16150.8L75580.6,-16150.8L75580.6,-16150.9L75580.6,-16150.9L75580.6,-16151L75580.6,-16151L75580.6,-16151.1L75580.7,-16151.1L75580.7,-16151.2L75580.7,-16151.2L75580.7,-16151.2L75580.7,-16151.3L75580.8,-16151.3L75580.8,-16151.4L75580.8,-16151.4L75580.8,-16151.5L75580.9,-16151.5L75580.9,-16151.6L75580.9,-16151.6L75581,-16151.6L75581,-16151.7L75581,-16151.7L75581.1,-16151.8L75581.1,-16151.8L75581.1,-16151.8L75581.2,-16151.9L75581.2,-16151.9L75581.2,-16152L75581.3,-16152L75581.3,-16152L75581.4,-16152.1L75581.4,-16152.1L75581.5,-16152.1L75581.5,-16152.2L75581.5,-16152.2L75581.6,-16152.2L75581.6,-16152.2L75581.7,-16152.3L75581.7,-16152.3L75581.8,-16152.3L75581.8,-16152.3L75581.9,-16152.4L75581.9,-16152.4L75582,-16152.4L75582,-16152.4L75582,-16152.4L75582.1,-16152.5L75582.1,-16152.5L75582.2,-16152.5L75582.2,-16152.5L75582.3,-16152.5L75582.3,-16152.5L75582.4,-16152.5L75582.4,-16152.5L75582.4,-16152.5L75582.5,-16152.5L75582.5,-16152.5L75582.5,-16152.5L75582.5,-16152.5L75582.6,-16152.5L75582.6,-16152.5L75582.6,-16152.5L75582.6,-16152.5Z"/>
                    <path id="SPLINE36" serif:id="SPLINE" d="M75582.6,-16163.1C75581.6,-16163.2 75580.5,-16162 75580.6,-16161" style="fill:none;stroke:black;stroke-width:0.99px;"/>
                    <path id="SPLINE37" serif:id="SPLINE" d="M75580.6,-16161C75580.5,-16160 75581.6,-16158.8 75582.6,-16158.9" style="fill:none;stroke:black;stroke-width:0.99px;"/>
                    <path id="SPLINE38" serif:id="SPLINE" d="M75582.6,-16158.9C75583.6,-16158.8 75584.8,-16160 75584.7,-16161" style="fill:none;stroke:black;stroke-width:0.99px;"/>
                    <path id="SPLINE39" serif:id="SPLINE" d="M75584.7,-16161C75584.8,-16162 75583.6,-16163.2 75582.6,-16163.1" style="fill:none;stroke:black;stroke-width:0.99px;"/>
                    <path id="HATCH5" serif:id="HATCH" d="M75582.6,-16163.1L75582.7,-16163.1L75582.7,-16163.1L75582.7,-16163.1L75582.7,-16163.1L75582.7,-16163.1L75582.8,-16163.1L75582.8,-16163.1L75582.8,-16163.1L75582.8,-16163.1L75582.9,-16163.1L75582.9,-16163.1L75583,-16163.1L75583,-16163L75583.1,-16163L75583.1,-16163L75583.2,-16163L75583.2,-16163L75583.3,-16163L75583.3,-16163L75583.3,-16162.9L75583.4,-16162.9L75583.4,-16162.9L75583.5,-16162.9L75583.5,-16162.9L75583.6,-16162.8L75583.6,-16162.8L75583.7,-16162.8L75583.7,-16162.8L75583.8,-16162.7L75583.8,-16162.7L75583.8,-16162.7L75583.9,-16162.6L75583.9,-16162.6L75584,-16162.6L75584,-16162.5L75584,-16162.5L75584.1,-16162.4L75584.1,-16162.4L75584.2,-16162.4L75584.2,-16162.3L75584.2,-16162.3L75584.3,-16162.2L75584.3,-16162.2L75584.3,-16162.2L75584.4,-16162.1L75584.4,-16162.1L75584.4,-16162L75584.4,-16162L75584.5,-16161.9L75584.5,-16161.9L75584.5,-16161.9L75584.5,-16161.8L75584.6,-16161.8L75584.6,-16161.7L75584.6,-16161.7L75584.6,-16161.6L75584.6,-16161.6L75584.6,-16161.5L75584.7,-16161.5L75584.7,-16161.4L75584.7,-16161.4L75584.7,-16161.3L75584.7,-16161.3L75584.7,-16161.2L75584.7,-16161.2L75584.7,-16161.2L75584.7,-16161.2L75584.7,-16161.1L75584.7,-16161.1L75584.7,-16161.1L75584.7,-16161.1L75584.7,-16161L75584.7,-16161L75584.7,-16161L75584.7,-16161L75584.7,-16160.9L75584.7,-16160.9L75584.7,-16160.9L75584.7,-16160.9L75584.7,-16160.8L75584.7,-16160.8L75584.7,-16160.8L75584.7,-16160.8L75584.7,-16160.8L75584.7,-16160.7L75584.7,-16160.7L75584.7,-16160.6L75584.7,-16160.6L75584.7,-16160.5L75584.6,-16160.5L75584.6,-16160.4L75584.6,-16160.4L75584.6,-16160.3L75584.6,-16160.3L75584.6,-16160.2L75584.5,-16160.2L75584.5,-16160.1L75584.5,-16160.1L75584.5,-16160L75584.4,-16160L75584.4,-16160L75584.4,-16159.9L75584.4,-16159.9L75584.3,-16159.8L75584.3,-16159.8L75584.3,-16159.7L75584.2,-16159.7L75584.2,-16159.7L75584.2,-16159.6L75584.1,-16159.6L75584.1,-16159.5L75584,-16159.5L75584,-16159.5L75584,-16159.4L75583.9,-16159.4L75583.9,-16159.4L75583.8,-16159.3L75583.8,-16159.3L75583.8,-16159.3L75583.7,-16159.2L75583.7,-16159.2L75583.6,-16159.2L75583.6,-16159.2L75583.5,-16159.1L75583.5,-16159.1L75583.4,-16159.1L75583.4,-16159.1L75583.3,-16159L75583.3,-16159L75583.3,-16159L75583.2,-16159L75583.2,-16159L75583.1,-16159L75583.1,-16158.9L75583,-16158.9L75583,-16158.9L75582.9,-16158.9L75582.9,-16158.9L75582.8,-16158.9L75582.8,-16158.9L75582.8,-16158.9L75582.8,-16158.9L75582.7,-16158.9L75582.7,-16158.9L75582.7,-16158.9L75582.7,-16158.9L75582.7,-16158.9L75582.6,-16158.9L75582.6,-16158.9L75582.6,-16158.9L75582.6,-16158.9L75582.5,-16158.9L75582.5,-16158.9L75582.5,-16158.9L75582.5,-16158.9L75582.4,-16158.9L75582.4,-16158.9L75582.4,-16158.9L75582.3,-16158.9L75582.3,-16158.9L75582.2,-16158.9L75582.2,-16158.9L75582.1,-16159L75582.1,-16159L75582,-16159L75582,-16159L75582,-16159L75581.9,-16159L75581.9,-16159.1L75581.8,-16159.1L75581.8,-16159.1L75581.7,-16159.1L75581.7,-16159.2L75581.6,-16159.2L75581.6,-16159.2L75581.5,-16159.2L75581.5,-16159.3L75581.5,-16159.3L75581.4,-16159.3L75581.4,-16159.4L75581.3,-16159.4L75581.3,-16159.4L75581.2,-16159.5L75581.2,-16159.5L75581.2,-16159.5L75581.1,-16159.6L75581.1,-16159.6L75581.1,-16159.7L75581,-16159.7L75581,-16159.7L75581,-16159.8L75580.9,-16159.8L75580.9,-16159.9L75580.9,-16159.9L75580.8,-16160L75580.8,-16160L75580.8,-16160L75580.8,-16160.1L75580.7,-16160.1L75580.7,-16160.2L75580.7,-16160.2L75580.7,-16160.3L75580.7,-16160.3L75580.6,-16160.4L75580.6,-16160.4L75580.6,-16160.5L75580.6,-16160.5L75580.6,-16160.6L75580.6,-16160.6L75580.6,-16160.7L75580.6,-16160.7L75580.6,-16160.8L75580.6,-16160.8L75580.6,-16160.8L75580.6,-16160.8L75580.5,-16160.8L75580.5,-16160.9L75580.5,-16160.9L75580.6,-16160.9L75580.6,-16160.9L75580.6,-16161L75580.6,-16161L75580.6,-16161L75580.6,-16161L75580.6,-16161.1L75580.5,-16161.1L75580.5,-16161.1L75580.5,-16161.1L75580.6,-16161.2L75580.6,-16161.2L75580.6,-16161.2L75580.6,-16161.2L75580.6,-16161.3L75580.6,-16161.3L75580.6,-16161.4L75580.6,-16161.4L75580.6,-16161.5L75580.6,-16161.5L75580.6,-16161.6L75580.6,-16161.6L75580.7,-16161.7L75580.7,-16161.7L75580.7,-16161.8L75580.7,-16161.8L75580.7,-16161.9L75580.8,-16161.9L75580.8,-16161.9L75580.8,-16162L75580.8,-16162L75580.9,-16162.1L75580.9,-16162.1L75580.9,-16162.2L75581,-16162.2L75581,-16162.2L75581,-16162.3L75581.1,-16162.3L75581.1,-16162.4L75581.1,-16162.4L75581.2,-16162.4L75581.2,-16162.5L75581.2,-16162.5L75581.3,-16162.6L75581.3,-16162.6L75581.4,-16162.6L75581.4,-16162.7L75581.5,-16162.7L75581.5,-16162.7L75581.5,-16162.8L75581.6,-16162.8L75581.6,-16162.8L75581.7,-16162.8L75581.7,-16162.9L75581.8,-16162.9L75581.8,-16162.9L75581.9,-16162.9L75581.9,-16162.9L75582,-16163L75582,-16163L75582,-16163L75582.1,-16163L75582.1,-16163L75582.2,-16163L75582.2,-16163L75582.3,-16163.1L75582.3,-16163.1L75582.4,-16163.1L75582.4,-16163.1L75582.4,-16163.1L75582.5,-16163.1L75582.5,-16163.1L75582.5,-16163.1L75582.5,-16163.1L75582.6,-16163.1L75582.6,-16163.1L75582.6,-16163.1L75582.6,-16163.1Z"/>
                    <path id="SPLINE40" serif:id="SPLINE" d="M75555.8,-16163.1C75554.8,-16163.2 75553.7,-16162 75553.8,-16161" style="fill:none;stroke:black;stroke-width:0.99px;"/>
                    <path id="SPLINE41" serif:id="SPLINE" d="M75553.8,-16161C75553.7,-16160 75554.8,-16158.8 75555.8,-16158.9" style="fill:none;stroke:black;stroke-width:0.99px;"/>
                    <path id="SPLINE42" serif:id="SPLINE" d="M75555.8,-16158.9C75556.8,-16158.8 75558,-16160 75557.9,-16161" style="fill:none;stroke:black;stroke-width:0.99px;"/>
                    <path id="SPLINE43" serif:id="SPLINE" d="M75557.9,-16161C75558,-16162 75556.8,-16163.2 75555.8,-16163.1" style="fill:none;stroke:black;stroke-width:0.99px;"/>
                    <path id="HATCH6" serif:id="HATCH" d="M75555.8,-16163.1L75555.9,-16163.1L75555.9,-16163.1L75555.9,-16163.1L75555.9,-16163.1L75555.9,-16163.1L75556,-16163.1L75556,-16163.1L75556,-16163.1L75556,-16163.1L75556.1,-16163.1L75556.1,-16163.1L75556.2,-16163.1L75556.2,-16163L75556.3,-16163L75556.3,-16163L75556.4,-16163L75556.4,-16163L75556.5,-16163L75556.5,-16163L75556.6,-16162.9L75556.6,-16162.9L75556.6,-16162.9L75556.7,-16162.9L75556.7,-16162.9L75556.8,-16162.8L75556.8,-16162.8L75556.9,-16162.8L75556.9,-16162.8L75557,-16162.7L75557,-16162.7L75557,-16162.7L75557.1,-16162.6L75557.1,-16162.6L75557.2,-16162.6L75557.2,-16162.5L75557.2,-16162.5L75557.3,-16162.4L75557.3,-16162.4L75557.4,-16162.4L75557.4,-16162.3L75557.4,-16162.3L75557.5,-16162.2L75557.5,-16162.2L75557.5,-16162.2L75557.6,-16162.1L75557.6,-16162.1L75557.6,-16162L75557.6,-16162L75557.7,-16161.9L75557.7,-16161.9L75557.7,-16161.9L75557.7,-16161.8L75557.8,-16161.8L75557.8,-16161.7L75557.8,-16161.7L75557.8,-16161.6L75557.8,-16161.6L75557.8,-16161.5L75557.9,-16161.5L75557.9,-16161.4L75557.9,-16161.4L75557.9,-16161.3L75557.9,-16161.3L75557.9,-16161.2L75557.9,-16161.2L75557.9,-16161.2L75557.9,-16161.2L75557.9,-16161.1L75557.9,-16161.1L75557.9,-16161.1L75557.9,-16161.1L75557.9,-16161L75557.9,-16161L75557.9,-16161L75557.9,-16161L75557.9,-16160.9L75557.9,-16160.9L75557.9,-16160.9L75557.9,-16160.9L75557.9,-16160.8L75557.9,-16160.8L75557.9,-16160.8L75557.9,-16160.8L75557.9,-16160.8L75557.9,-16160.7L75557.9,-16160.7L75557.9,-16160.6L75557.9,-16160.6L75557.9,-16160.5L75557.8,-16160.5L75557.8,-16160.4L75557.8,-16160.4L75557.8,-16160.3L75557.8,-16160.3L75557.8,-16160.2L75557.7,-16160.2L75557.7,-16160.1L75557.7,-16160.1L75557.7,-16160L75557.6,-16160L75557.6,-16160L75557.6,-16159.9L75557.6,-16159.9L75557.5,-16159.8L75557.5,-16159.8L75557.5,-16159.7L75557.4,-16159.7L75557.4,-16159.7L75557.4,-16159.6L75557.3,-16159.6L75557.3,-16159.5L75557.2,-16159.5L75557.2,-16159.5L75557.2,-16159.4L75557.1,-16159.4L75557.1,-16159.4L75557,-16159.3L75557,-16159.3L75557,-16159.3L75556.9,-16159.2L75556.9,-16159.2L75556.8,-16159.2L75556.8,-16159.2L75556.7,-16159.1L75556.7,-16159.1L75556.6,-16159.1L75556.6,-16159.1L75556.6,-16159L75556.5,-16159L75556.5,-16159L75556.4,-16159L75556.4,-16159L75556.3,-16159L75556.3,-16158.9L75556.2,-16158.9L75556.2,-16158.9L75556.1,-16158.9L75556.1,-16158.9L75556,-16158.9L75556,-16158.9L75556,-16158.9L75556,-16158.9L75555.9,-16158.9L75555.9,-16158.9L75555.9,-16158.9L75555.9,-16158.9L75555.9,-16158.9L75555.8,-16158.9L75555.8,-16158.9L75555.8,-16158.9L75555.8,-16158.9L75555.7,-16158.9L75555.7,-16158.9L75555.7,-16158.9L75555.7,-16158.9L75555.6,-16158.9L75555.6,-16158.9L75555.6,-16158.9L75555.5,-16158.9L75555.5,-16158.9L75555.4,-16158.9L75555.4,-16158.9L75555.3,-16159L75555.3,-16159L75555.3,-16159L75555.2,-16159L75555.2,-16159L75555.1,-16159L75555.1,-16159.1L75555,-16159.1L75555,-16159.1L75554.9,-16159.1L75554.9,-16159.2L75554.8,-16159.2L75554.8,-16159.2L75554.7,-16159.2L75554.7,-16159.3L75554.7,-16159.3L75554.6,-16159.3L75554.6,-16159.4L75554.5,-16159.4L75554.5,-16159.4L75554.4,-16159.5L75554.4,-16159.5L75554.4,-16159.5L75554.3,-16159.6L75554.3,-16159.6L75554.3,-16159.7L75554.2,-16159.7L75554.2,-16159.7L75554.2,-16159.8L75554.1,-16159.8L75554.1,-16159.9L75554.1,-16159.9L75554,-16160L75554,-16160L75554,-16160L75554,-16160.1L75553.9,-16160.1L75553.9,-16160.2L75553.9,-16160.2L75553.9,-16160.3L75553.9,-16160.3L75553.8,-16160.4L75553.8,-16160.4L75553.8,-16160.5L75553.8,-16160.5L75553.8,-16160.6L75553.8,-16160.6L75553.8,-16160.7L75553.8,-16160.7L75553.8,-16160.8L75553.8,-16160.8L75553.8,-16160.8L75553.8,-16160.8L75553.8,-16160.8L75553.8,-16160.9L75553.8,-16160.9L75553.8,-16160.9L75553.8,-16160.9L75553.8,-16161L75553.8,-16161L75553.8,-16161L75553.8,-16161L75553.8,-16161.1L75553.8,-16161.1L75553.8,-16161.1L75553.8,-16161.1L75553.8,-16161.2L75553.8,-16161.2L75553.8,-16161.2L75553.8,-16161.2L75553.8,-16161.3L75553.8,-16161.3L75553.8,-16161.4L75553.8,-16161.4L75553.8,-16161.5L75553.8,-16161.5L75553.8,-16161.6L75553.8,-16161.6L75553.9,-16161.7L75553.9,-16161.7L75553.9,-16161.8L75553.9,-16161.8L75553.9,-16161.9L75554,-16161.9L75554,-16161.9L75554,-16162L75554,-16162L75554.1,-16162.1L75554.1,-16162.1L75554.1,-16162.2L75554.2,-16162.2L75554.2,-16162.2L75554.2,-16162.3L75554.3,-16162.3L75554.3,-16162.4L75554.3,-16162.4L75554.4,-16162.4L75554.4,-16162.5L75554.4,-16162.5L75554.5,-16162.6L75554.5,-16162.6L75554.6,-16162.6L75554.6,-16162.7L75554.7,-16162.7L75554.7,-16162.7L75554.7,-16162.8L75554.8,-16162.8L75554.8,-16162.8L75554.9,-16162.8L75554.9,-16162.9L75555,-16162.9L75555,-16162.9L75555.1,-16162.9L75555.1,-16162.9L75555.2,-16163L75555.2,-16163L75555.3,-16163L75555.3,-16163L75555.3,-16163L75555.4,-16163L75555.4,-16163L75555.5,-16163.1L75555.5,-16163.1L75555.6,-16163.1L75555.6,-16163.1L75555.6,-16163.1L75555.7,-16163.1L75555.7,-16163.1L75555.7,-16163.1L75555.7,-16163.1L75555.8,-16163.1L75555.8,-16163.1L75555.8,-16163.1L75555.8,-16163.1Z"/>
                    <path id="SPLINE44" serif:id="SPLINE" d="M75555.8,-16152.5C75554.8,-16152.6 75553.7,-16151.4 75553.8,-16150.4" style="fill:none;stroke:black;stroke-width:0.99px;"/>
                    <path id="SPLINE45" serif:id="SPLINE" d="M75553.8,-16150.4C75553.7,-16149.4 75554.8,-16148.3 75555.8,-16148.4" style="fill:none;stroke:black;stroke-width:0.99px;"/>
                    <path id="SPLINE46" serif:id="SPLINE" d="M75555.8,-16148.4C75556.8,-16148.3 75558,-16149.4 75557.9,-16150.4" style="fill:none;stroke:black;stroke-width:0.99px;"/>
                    <path id="SPLINE47" serif:id="SPLINE" d="M75557.9,-16150.4C75558,-16151.4 75556.8,-16152.6 75555.8,-16152.5" style="fill:none;stroke:black;stroke-width:0.99px;"/>
                    <path id="HATCH7" serif:id="HATCH" d="M75555.8,-16152.5L75555.9,-16152.5L75555.9,-16152.5L75555.9,-16152.5L75555.9,-16152.5L75555.9,-16152.5L75556,-16152.5L75556,-16152.5L75556,-16152.5L75556,-16152.5L75556.1,-16152.5L75556.1,-16152.5L75556.2,-16152.5L75556.2,-16152.5L75556.3,-16152.5L75556.3,-16152.5L75556.4,-16152.5L75556.4,-16152.4L75556.5,-16152.4L75556.5,-16152.4L75556.6,-16152.4L75556.6,-16152.4L75556.6,-16152.3L75556.7,-16152.3L75556.7,-16152.3L75556.8,-16152.3L75556.8,-16152.2L75556.9,-16152.2L75556.9,-16152.2L75557,-16152.2L75557,-16152.1L75557,-16152.1L75557.1,-16152.1L75557.1,-16152L75557.2,-16152L75557.2,-16152L75557.2,-16151.9L75557.3,-16151.9L75557.3,-16151.8L75557.4,-16151.8L75557.4,-16151.8L75557.4,-16151.7L75557.5,-16151.7L75557.5,-16151.6L75557.5,-16151.6L75557.6,-16151.6L75557.6,-16151.5L75557.6,-16151.5L75557.6,-16151.4L75557.7,-16151.4L75557.7,-16151.3L75557.7,-16151.3L75557.7,-16151.2L75557.8,-16151.2L75557.8,-16151.2L75557.8,-16151.1L75557.8,-16151.1L75557.8,-16151L75557.8,-16151L75557.9,-16150.9L75557.9,-16150.9L75557.9,-16150.8L75557.9,-16150.8L75557.9,-16150.7L75557.9,-16150.7L75557.9,-16150.6L75557.9,-16150.6L75557.9,-16150.6L75557.9,-16150.6L75557.9,-16150.6L75557.9,-16150.5L75557.9,-16150.5L75557.9,-16150.5L75557.9,-16150.5L75557.9,-16150.4L75557.9,-16150.4L75557.9,-16150.4L75557.9,-16150.4L75557.9,-16150.3L75557.9,-16150.3L75557.9,-16150.3L75557.9,-16150.3L75557.9,-16150.2L75557.9,-16150.2L75557.9,-16150.2L75557.9,-16150.1L75557.9,-16150.1L75557.9,-16150L75557.9,-16150L75557.9,-16149.9L75557.8,-16149.9L75557.8,-16149.9L75557.8,-16149.8L75557.8,-16149.8L75557.8,-16149.7L75557.8,-16149.7L75557.7,-16149.6L75557.7,-16149.6L75557.7,-16149.5L75557.7,-16149.5L75557.6,-16149.4L75557.6,-16149.4L75557.6,-16149.3L75557.6,-16149.3L75557.5,-16149.3L75557.5,-16149.2L75557.5,-16149.2L75557.4,-16149.1L75557.4,-16149.1L75557.4,-16149.1L75557.3,-16149L75557.3,-16149L75557.2,-16148.9L75557.2,-16148.9L75557.2,-16148.9L75557.1,-16148.8L75557.1,-16148.8L75557,-16148.8L75557,-16148.7L75557,-16148.7L75556.9,-16148.7L75556.9,-16148.6L75556.8,-16148.6L75556.8,-16148.6L75556.7,-16148.6L75556.7,-16148.5L75556.6,-16148.5L75556.6,-16148.5L75556.6,-16148.5L75556.5,-16148.5L75556.5,-16148.4L75556.4,-16148.4L75556.4,-16148.4L75556.3,-16148.4L75556.3,-16148.4L75556.2,-16148.4L75556.2,-16148.4L75556.1,-16148.4L75556.1,-16148.4L75556,-16148.4L75556,-16148.4L75556,-16148.4L75556,-16148.4L75555.9,-16148.4L75555.9,-16148.4L75555.9,-16148.4L75555.9,-16148.4L75555.9,-16148.4L75555.8,-16148.4L75555.8,-16148.4L75555.8,-16148.4L75555.8,-16148.4L75555.7,-16148.4L75555.7,-16148.4L75555.7,-16148.4L75555.7,-16148.4L75555.6,-16148.4L75555.6,-16148.4L75555.6,-16148.4L75555.5,-16148.4L75555.5,-16148.4L75555.4,-16148.4L75555.4,-16148.4L75555.3,-16148.4L75555.3,-16148.4L75555.3,-16148.4L75555.2,-16148.4L75555.2,-16148.5L75555.1,-16148.5L75555.1,-16148.5L75555,-16148.5L75555,-16148.5L75554.9,-16148.6L75554.9,-16148.6L75554.8,-16148.6L75554.8,-16148.6L75554.7,-16148.7L75554.7,-16148.7L75554.7,-16148.7L75554.6,-16148.8L75554.6,-16148.8L75554.5,-16148.8L75554.5,-16148.9L75554.4,-16148.9L75554.4,-16148.9L75554.4,-16149L75554.3,-16149L75554.3,-16149.1L75554.3,-16149.1L75554.2,-16149.1L75554.2,-16149.2L75554.2,-16149.2L75554.1,-16149.3L75554.1,-16149.3L75554.1,-16149.3L75554,-16149.4L75554,-16149.4L75554,-16149.5L75554,-16149.5L75553.9,-16149.6L75553.9,-16149.6L75553.9,-16149.7L75553.9,-16149.7L75553.9,-16149.8L75553.8,-16149.8L75553.8,-16149.9L75553.8,-16149.9L75553.8,-16149.9L75553.8,-16150L75553.8,-16150L75553.8,-16150.1L75553.8,-16150.1L75553.8,-16150.2L75553.8,-16150.2L75553.8,-16150.2L75553.8,-16150.3L75553.8,-16150.3L75553.8,-16150.3L75553.8,-16150.3L75553.8,-16150.4L75553.8,-16150.4L75553.8,-16150.4L75553.8,-16150.4L75553.8,-16150.5L75553.8,-16150.5L75553.8,-16150.5L75553.8,-16150.5L75553.8,-16150.6L75553.8,-16150.6L75553.8,-16150.6L75553.8,-16150.6L75553.8,-16150.6L75553.8,-16150.7L75553.8,-16150.7L75553.8,-16150.8L75553.8,-16150.8L75553.8,-16150.9L75553.8,-16150.9L75553.8,-16151L75553.8,-16151L75553.8,-16151.1L75553.9,-16151.1L75553.9,-16151.2L75553.9,-16151.2L75553.9,-16151.2L75553.9,-16151.3L75554,-16151.3L75554,-16151.4L75554,-16151.4L75554,-16151.5L75554.1,-16151.5L75554.1,-16151.6L75554.1,-16151.6L75554.2,-16151.6L75554.2,-16151.7L75554.2,-16151.7L75554.3,-16151.8L75554.3,-16151.8L75554.3,-16151.8L75554.4,-16151.9L75554.4,-16151.9L75554.4,-16152L75554.5,-16152L75554.5,-16152L75554.6,-16152.1L75554.6,-16152.1L75554.7,-16152.1L75554.7,-16152.2L75554.7,-16152.2L75554.8,-16152.2L75554.8,-16152.2L75554.9,-16152.3L75554.9,-16152.3L75555,-16152.3L75555,-16152.3L75555.1,-16152.4L75555.1,-16152.4L75555.2,-16152.4L75555.2,-16152.4L75555.3,-16152.4L75555.3,-16152.5L75555.3,-16152.5L75555.4,-16152.5L75555.4,-16152.5L75555.5,-16152.5L75555.5,-16152.5L75555.6,-16152.5L75555.6,-16152.5L75555.6,-16152.5L75555.7,-16152.5L75555.7,-16152.5L75555.7,-16152.5L75555.7,-16152.5L75555.8,-16152.5L75555.8,-16152.5L75555.8,-16152.5L75555.8,-16152.5Z"/>
                    <path id="SPLINE48" serif:id="SPLINE" d="M75706.3,-16324.3C75705.3,-16324.4 75704.2,-16323.3 75704.3,-16322.3" style="fill:none;stroke:black;stroke-width:0.99px;"/>
                    <path id="SPLINE49" serif:id="SPLINE" d="M75704.3,-16322.3C75704.2,-16321.2 75705.3,-16320.1 75706.3,-16320.2" style="fill:none;stroke:black;stroke-width:0.99px;"/>
                    <path id="SPLINE50" serif:id="SPLINE" d="M75706.3,-16320.2C75707.4,-16320.1 75708.5,-16321.2 75708.4,-16322.3" style="fill:none;stroke:black;stroke-width:0.99px;"/>
                    <path id="SPLINE51" serif:id="SPLINE" d="M75708.4,-16322.3C75708.5,-16323.3 75707.4,-16324.4 75706.3,-16324.3" style="fill:none;stroke:black;stroke-width:0.99px;"/>
                    <path id="HATCH8" serif:id="HATCH" d="M75706.3,-16324.3L75706.4,-16324.3L75706.4,-16324.3L75706.4,-16324.3L75706.4,-16324.3L75706.5,-16324.3L75706.5,-16324.3L75706.5,-16324.3L75706.5,-16324.3L75706.6,-16324.3L75706.6,-16324.3L75706.6,-16324.3L75706.7,-16324.3L75706.7,-16324.3L75706.8,-16324.3L75706.8,-16324.3L75706.9,-16324.3L75706.9,-16324.3L75707,-16324.3L75707,-16324.2L75707.1,-16324.2L75707.1,-16324.2L75707.2,-16324.2L75707.2,-16324.2L75707.3,-16324.1L75707.3,-16324.1L75707.3,-16324.1L75707.4,-16324.1L75707.4,-16324L75707.5,-16324L75707.5,-16324L75707.6,-16323.9L75707.6,-16323.9L75707.6,-16323.9L75707.7,-16323.8L75707.7,-16323.8L75707.8,-16323.8L75707.8,-16323.7L75707.8,-16323.7L75707.9,-16323.6L75707.9,-16323.6L75707.9,-16323.6L75708,-16323.5L75708,-16323.5L75708,-16323.4L75708.1,-16323.4L75708.1,-16323.3L75708.1,-16323.3L75708.2,-16323.3L75708.2,-16323.2L75708.2,-16323.2L75708.2,-16323.1L75708.3,-16323.1L75708.3,-16323L75708.3,-16323L75708.3,-16322.9L75708.3,-16322.9L75708.4,-16322.8L75708.4,-16322.8L75708.4,-16322.7L75708.4,-16322.7L75708.4,-16322.6L75708.4,-16322.6L75708.4,-16322.6L75708.4,-16322.5L75708.4,-16322.5L75708.4,-16322.5L75708.4,-16322.4L75708.4,-16322.4L75708.4,-16322.4L75708.4,-16322.4L75708.4,-16322.3L75708.4,-16322.3L75708.4,-16322.3L75708.4,-16322.3L75708.4,-16322.2L75708.4,-16322.2L75708.4,-16322.2L75708.4,-16322.2L75708.4,-16322.1L75708.4,-16322.1L75708.4,-16322.1L75708.4,-16322.1L75708.4,-16322L75708.4,-16322L75708.4,-16322L75708.4,-16321.9L75708.4,-16321.9L75708.4,-16321.8L75708.4,-16321.8L75708.4,-16321.7L75708.4,-16321.7L75708.3,-16321.6L75708.3,-16321.6L75708.3,-16321.5L75708.3,-16321.5L75708.3,-16321.4L75708.2,-16321.4L75708.2,-16321.4L75708.2,-16321.3L75708.2,-16321.3L75708.1,-16321.2L75708.1,-16321.2L75708.1,-16321.1L75708,-16321.1L75708,-16321L75708,-16321L75707.9,-16321L75707.9,-16320.9L75707.9,-16320.9L75707.8,-16320.8L75707.8,-16320.8L75707.8,-16320.8L75707.7,-16320.7L75707.7,-16320.7L75707.6,-16320.7L75707.6,-16320.6L75707.6,-16320.6L75707.5,-16320.6L75707.5,-16320.5L75707.4,-16320.5L75707.4,-16320.5L75707.3,-16320.4L75707.3,-16320.4L75707.3,-16320.4L75707.2,-16320.4L75707.2,-16320.4L75707.1,-16320.3L75707.1,-16320.3L75707,-16320.3L75707,-16320.3L75706.9,-16320.3L75706.9,-16320.2L75706.8,-16320.2L75706.8,-16320.2L75706.7,-16320.2L75706.7,-16320.2L75706.6,-16320.2L75706.6,-16320.2L75706.6,-16320.2L75706.5,-16320.2L75706.5,-16320.2L75706.5,-16320.2L75706.5,-16320.2L75706.4,-16320.2L75706.4,-16320.2L75706.4,-16320.2L75706.4,-16320.2L75706.3,-16320.2L75706.3,-16320.2L75706.3,-16320.2L75706.3,-16320.2L75706.3,-16320.2L75706.2,-16320.2L75706.2,-16320.2L75706.2,-16320.2L75706.2,-16320.2L75706.1,-16320.2L75706.1,-16320.2L75706.1,-16320.2L75706,-16320.2L75706,-16320.2L75705.9,-16320.2L75705.9,-16320.2L75705.8,-16320.2L75705.8,-16320.3L75705.7,-16320.3L75705.7,-16320.3L75705.6,-16320.3L75705.6,-16320.3L75705.5,-16320.4L75705.5,-16320.4L75705.4,-16320.4L75705.4,-16320.4L75705.3,-16320.4L75705.3,-16320.5L75705.3,-16320.5L75705.2,-16320.5L75705.2,-16320.6L75705.1,-16320.6L75705.1,-16320.6L75705,-16320.7L75705,-16320.7L75705,-16320.7L75704.9,-16320.8L75704.9,-16320.8L75704.9,-16320.8L75704.8,-16320.9L75704.8,-16320.9L75704.7,-16321L75704.7,-16321L75704.7,-16321L75704.6,-16321.1L75704.6,-16321.1L75704.6,-16321.2L75704.6,-16321.2L75704.5,-16321.3L75704.5,-16321.3L75704.5,-16321.4L75704.5,-16321.4L75704.4,-16321.4L75704.4,-16321.5L75704.4,-16321.5L75704.4,-16321.6L75704.4,-16321.6L75704.3,-16321.7L75704.3,-16321.7L75704.3,-16321.8L75704.3,-16321.8L75704.3,-16321.9L75704.3,-16321.9L75704.3,-16322L75704.3,-16322L75704.3,-16322L75704.3,-16322.1L75704.3,-16322.1L75704.3,-16322.1L75704.3,-16322.1L75704.3,-16322.2L75704.3,-16322.2L75704.3,-16322.2L75704.3,-16322.2L75704.3,-16322.3L75704.3,-16322.3L75704.3,-16322.3L75704.3,-16322.3L75704.3,-16322.4L75704.3,-16322.4L75704.3,-16322.4L75704.3,-16322.4L75704.3,-16322.5L75704.3,-16322.5L75704.3,-16322.5L75704.3,-16322.6L75704.3,-16322.6L75704.3,-16322.6L75704.3,-16322.7L75704.3,-16322.7L75704.3,-16322.8L75704.3,-16322.8L75704.4,-16322.9L75704.4,-16322.9L75704.4,-16323L75704.4,-16323L75704.4,-16323.1L75704.5,-16323.1L75704.5,-16323.2L75704.5,-16323.2L75704.5,-16323.3L75704.6,-16323.3L75704.6,-16323.3L75704.6,-16323.4L75704.6,-16323.4L75704.7,-16323.5L75704.7,-16323.5L75704.7,-16323.6L75704.8,-16323.6L75704.8,-16323.6L75704.9,-16323.7L75704.9,-16323.7L75704.9,-16323.8L75705,-16323.8L75705,-16323.8L75705,-16323.9L75705.1,-16323.9L75705.1,-16323.9L75705.2,-16324L75705.2,-16324L75705.3,-16324L75705.3,-16324.1L75705.3,-16324.1L75705.4,-16324.1L75705.4,-16324.1L75705.5,-16324.2L75705.5,-16324.2L75705.6,-16324.2L75705.6,-16324.2L75705.7,-16324.2L75705.7,-16324.3L75705.8,-16324.3L75705.8,-16324.3L75705.9,-16324.3L75705.9,-16324.3L75706,-16324.3L75706,-16324.3L75706.1,-16324.3L75706.1,-16324.3L75706.1,-16324.3L75706.2,-16324.3L75706.2,-16324.3L75706.2,-16324.3L75706.2,-16324.3L75706.3,-16324.3L75706.3,-16324.3L75706.3,-16324.3L75706.3,-16324.3L75706.3,-16324.3Z"/>
                    <path id="SPLINE52" serif:id="SPLINE" d="M75733.1,-16313.8C75732.1,-16313.9 75731,-16312.7 75731.1,-16311.7" style="fill:none;stroke:black;stroke-width:0.99px;"/>
                    <path id="SPLINE53" serif:id="SPLINE" d="M75731.1,-16311.7C75731,-16310.7 75732.1,-16309.5 75733.1,-16309.6" style="fill:none;stroke:black;stroke-width:0.99px;"/>
                    <path id="SPLINE54" serif:id="SPLINE" d="M75733.1,-16309.6C75734.2,-16309.5 75735.3,-16310.7 75735.2,-16311.7" style="fill:none;stroke:black;stroke-width:0.99px;"/>
                    <path id="SPLINE55" serif:id="SPLINE" d="M75735.2,-16311.7C75735.3,-16312.7 75734.2,-16313.9 75733.1,-16313.8" style="fill:none;stroke:black;stroke-width:0.99px;"/>
                    <path id="HATCH9" serif:id="HATCH" d="M75733.1,-16313.8L75733.2,-16313.8L75733.2,-16313.8L75733.2,-16313.8L75733.2,-16313.8L75733.3,-16313.8L75733.3,-16313.8L75733.3,-16313.8L75733.3,-16313.8L75733.4,-16313.8L75733.4,-16313.8L75733.4,-16313.8L75733.5,-16313.8L75733.5,-16313.8L75733.6,-16313.7L75733.6,-16313.7L75733.7,-16313.7L75733.7,-16313.7L75733.8,-16313.7L75733.8,-16313.7L75733.9,-16313.7L75733.9,-16313.6L75734,-16313.6L75734,-16313.6L75734.1,-16313.6L75734.1,-16313.5L75734.1,-16313.5L75734.2,-16313.5L75734.2,-16313.5L75734.3,-16313.4L75734.3,-16313.4L75734.4,-16313.4L75734.4,-16313.3L75734.4,-16313.3L75734.5,-16313.3L75734.5,-16313.2L75734.6,-16313.2L75734.6,-16313.2L75734.6,-16313.1L75734.7,-16313.1L75734.7,-16313L75734.7,-16313L75734.8,-16313L75734.8,-16312.9L75734.8,-16312.9L75734.9,-16312.8L75734.9,-16312.8L75734.9,-16312.7L75735,-16312.7L75735,-16312.7L75735,-16312.6L75735,-16312.6L75735.1,-16312.5L75735.1,-16312.5L75735.1,-16312.4L75735.1,-16312.4L75735.1,-16312.3L75735.1,-16312.3L75735.2,-16312.2L75735.2,-16312.2L75735.2,-16312.1L75735.2,-16312.1L75735.2,-16312L75735.2,-16312L75735.2,-16311.9L75735.2,-16311.9L75735.2,-16311.9L75735.2,-16311.9L75735.2,-16311.8L75735.2,-16311.8L75735.2,-16311.8L75735.2,-16311.8L75735.2,-16311.7L75735.2,-16311.7L75735.2,-16311.7L75735.2,-16311.7L75735.2,-16311.7L75735.2,-16311.6L75735.2,-16311.6L75735.2,-16311.6L75735.2,-16311.6L75735.2,-16311.5L75735.2,-16311.5L75735.2,-16311.5L75735.2,-16311.5L75735.2,-16311.4L75735.2,-16311.4L75735.2,-16311.3L75735.2,-16311.3L75735.2,-16311.2L75735.2,-16311.2L75735.1,-16311.1L75735.1,-16311.1L75735.1,-16311L75735.1,-16311L75735.1,-16310.9L75735.1,-16310.9L75735,-16310.8L75735,-16310.8L75735,-16310.7L75735,-16310.7L75734.9,-16310.7L75734.9,-16310.6L75734.9,-16310.6L75734.8,-16310.5L75734.8,-16310.5L75734.8,-16310.4L75734.7,-16310.4L75734.7,-16310.4L75734.7,-16310.3L75734.6,-16310.3L75734.6,-16310.2L75734.6,-16310.2L75734.5,-16310.2L75734.5,-16310.1L75734.4,-16310.1L75734.4,-16310.1L75734.4,-16310L75734.3,-16310L75734.3,-16310L75734.2,-16309.9L75734.2,-16309.9L75734.1,-16309.9L75734.1,-16309.9L75734.1,-16309.8L75734,-16309.8L75734,-16309.8L75733.9,-16309.8L75733.9,-16309.7L75733.8,-16309.7L75733.8,-16309.7L75733.7,-16309.7L75733.7,-16309.7L75733.6,-16309.7L75733.6,-16309.7L75733.5,-16309.6L75733.5,-16309.6L75733.4,-16309.6L75733.4,-16309.6L75733.4,-16309.6L75733.3,-16309.6L75733.3,-16309.6L75733.3,-16309.6L75733.3,-16309.6L75733.2,-16309.6L75733.2,-16309.6L75733.2,-16309.6L75733.2,-16309.6L75733.1,-16309.6L75733.1,-16309.6L75733.1,-16309.6L75733.1,-16309.6L75733,-16309.6L75733,-16309.6L75733,-16309.6L75733,-16309.6L75733,-16309.6L75732.9,-16309.6L75732.9,-16309.6L75732.9,-16309.6L75732.8,-16309.6L75732.8,-16309.6L75732.7,-16309.7L75732.7,-16309.7L75732.6,-16309.7L75732.6,-16309.7L75732.5,-16309.7L75732.5,-16309.7L75732.4,-16309.7L75732.4,-16309.8L75732.3,-16309.8L75732.3,-16309.8L75732.2,-16309.8L75732.2,-16309.9L75732.1,-16309.9L75732.1,-16309.9L75732.1,-16309.9L75732,-16310L75732,-16310L75731.9,-16310L75731.9,-16310.1L75731.8,-16310.1L75731.8,-16310.1L75731.8,-16310.2L75731.7,-16310.2L75731.7,-16310.2L75731.7,-16310.3L75731.6,-16310.3L75731.6,-16310.4L75731.5,-16310.4L75731.5,-16310.4L75731.5,-16310.5L75731.4,-16310.5L75731.4,-16310.6L75731.4,-16310.6L75731.4,-16310.7L75731.3,-16310.7L75731.3,-16310.7L75731.3,-16310.8L75731.3,-16310.8L75731.2,-16310.9L75731.2,-16310.9L75731.2,-16311L75731.2,-16311L75731.2,-16311.1L75731.1,-16311.1L75731.1,-16311.2L75731.1,-16311.2L75731.1,-16311.3L75731.1,-16311.3L75731.1,-16311.4L75731.1,-16311.4L75731.1,-16311.5L75731.1,-16311.5L75731.1,-16311.5L75731.1,-16311.5L75731.1,-16311.6L75731.1,-16311.6L75731.1,-16311.6L75731.1,-16311.6L75731.1,-16311.7L75731.1,-16311.7L75731.1,-16311.7L75731.1,-16311.7L75731.1,-16311.7L75731.1,-16311.8L75731.1,-16311.8L75731.1,-16311.8L75731.1,-16311.8L75731.1,-16311.9L75731.1,-16311.9L75731.1,-16311.9L75731.1,-16311.9L75731.1,-16312L75731.1,-16312L75731.1,-16312.1L75731.1,-16312.1L75731.1,-16312.2L75731.1,-16312.2L75731.1,-16312.3L75731.2,-16312.3L75731.2,-16312.4L75731.2,-16312.4L75731.2,-16312.5L75731.2,-16312.5L75731.3,-16312.6L75731.3,-16312.6L75731.3,-16312.7L75731.3,-16312.7L75731.4,-16312.7L75731.4,-16312.8L75731.4,-16312.8L75731.4,-16312.9L75731.5,-16312.9L75731.5,-16313L75731.5,-16313L75731.6,-16313L75731.6,-16313.1L75731.7,-16313.1L75731.7,-16313.2L75731.7,-16313.2L75731.8,-16313.2L75731.8,-16313.3L75731.8,-16313.3L75731.9,-16313.3L75731.9,-16313.4L75732,-16313.4L75732,-16313.4L75732.1,-16313.5L75732.1,-16313.5L75732.1,-16313.5L75732.2,-16313.5L75732.2,-16313.6L75732.3,-16313.6L75732.3,-16313.6L75732.4,-16313.6L75732.4,-16313.7L75732.5,-16313.7L75732.5,-16313.7L75732.6,-16313.7L75732.6,-16313.7L75732.7,-16313.7L75732.7,-16313.7L75732.8,-16313.8L75732.8,-16313.8L75732.9,-16313.8L75732.9,-16313.8L75732.9,-16313.8L75733,-16313.8L75733,-16313.8L75733,-16313.8L75733,-16313.8L75733,-16313.8L75733.1,-16313.8L75733.1,-16313.8L75733.1,-16313.8L75733.1,-16313.8Z"/>
                    <path id="SPLINE56" serif:id="SPLINE" d="M75706.3,-16503.6C75705.3,-16503.7 75704.2,-16502.5 75704.3,-16501.5" style="fill:none;stroke:black;stroke-width:0.99px;"/>
                    <path id="SPLINE57" serif:id="SPLINE" d="M75704.3,-16501.5C75704.2,-16500.5 75705.3,-16499.4 75706.3,-16499.5" style="fill:none;stroke:black;stroke-width:0.99px;"/>
                    <path id="SPLINE58" serif:id="SPLINE" d="M75706.3,-16499.5C75707.4,-16499.4 75708.5,-16500.5 75708.4,-16501.5" style="fill:none;stroke:black;stroke-width:0.99px;"/>
                    <path id="SPLINE59" serif:id="SPLINE" d="M75708.4,-16501.5C75708.5,-16502.5 75707.4,-16503.7 75706.3,-16503.6" style="fill:none;stroke:black;stroke-width:0.99px;"/>
                    <path id="HATCH10" serif:id="HATCH" d="M75706.3,-16503.6L75706.4,-16503.6L75706.4,-16503.6L75706.4,-16503.6L75706.4,-16503.6L75706.5,-16503.6L75706.5,-16503.6L75706.5,-16503.6L75706.5,-16503.6L75706.6,-16503.6L75706.6,-16503.6L75706.6,-16503.6L75706.7,-16503.6L75706.7,-16503.6L75706.8,-16503.6L75706.8,-16503.6L75706.9,-16503.5L75706.9,-16503.5L75707,-16503.5L75707,-16503.5L75707.1,-16503.5L75707.1,-16503.5L75707.2,-16503.4L75707.2,-16503.4L75707.3,-16503.4L75707.3,-16503.4L75707.3,-16503.3L75707.4,-16503.3L75707.4,-16503.3L75707.5,-16503.3L75707.5,-16503.2L75707.6,-16503.2L75707.6,-16503.2L75707.6,-16503.1L75707.7,-16503.1L75707.7,-16503.1L75707.8,-16503L75707.8,-16503L75707.8,-16502.9L75707.9,-16502.9L75707.9,-16502.9L75707.9,-16502.8L75708,-16502.8L75708,-16502.7L75708,-16502.7L75708.1,-16502.7L75708.1,-16502.6L75708.1,-16502.6L75708.2,-16502.5L75708.2,-16502.5L75708.2,-16502.4L75708.2,-16502.4L75708.3,-16502.3L75708.3,-16502.3L75708.3,-16502.2L75708.3,-16502.2L75708.3,-16502.2L75708.4,-16502.1L75708.4,-16502.1L75708.4,-16502L75708.4,-16502L75708.4,-16501.9L75708.4,-16501.9L75708.4,-16501.8L75708.4,-16501.8L75708.4,-16501.7L75708.4,-16501.7L75708.4,-16501.7L75708.4,-16501.7L75708.4,-16501.6L75708.4,-16501.6L75708.4,-16501.6L75708.4,-16501.6L75708.4,-16501.5L75708.4,-16501.5L75708.4,-16501.5L75708.4,-16501.5L75708.4,-16501.5L75708.4,-16501.4L75708.4,-16501.4L75708.4,-16501.4L75708.4,-16501.4L75708.4,-16501.3L75708.4,-16501.3L75708.4,-16501.3L75708.4,-16501.2L75708.4,-16501.2L75708.4,-16501.1L75708.4,-16501.1L75708.4,-16501L75708.4,-16501L75708.4,-16500.9L75708.3,-16500.9L75708.3,-16500.9L75708.3,-16500.8L75708.3,-16500.8L75708.3,-16500.7L75708.2,-16500.7L75708.2,-16500.6L75708.2,-16500.6L75708.2,-16500.5L75708.1,-16500.5L75708.1,-16500.4L75708.1,-16500.4L75708,-16500.4L75708,-16500.3L75708,-16500.3L75707.9,-16500.2L75707.9,-16500.2L75707.9,-16500.1L75707.8,-16500.1L75707.8,-16500.1L75707.8,-16500L75707.7,-16500L75707.7,-16500L75707.6,-16499.9L75707.6,-16499.9L75707.6,-16499.9L75707.5,-16499.8L75707.5,-16499.8L75707.4,-16499.8L75707.4,-16499.7L75707.3,-16499.7L75707.3,-16499.7L75707.3,-16499.7L75707.2,-16499.6L75707.2,-16499.6L75707.1,-16499.6L75707.1,-16499.6L75707,-16499.6L75707,-16499.5L75706.9,-16499.5L75706.9,-16499.5L75706.8,-16499.5L75706.8,-16499.5L75706.7,-16499.5L75706.7,-16499.5L75706.6,-16499.5L75706.6,-16499.5L75706.6,-16499.5L75706.5,-16499.4L75706.5,-16499.4L75706.5,-16499.4L75706.5,-16499.4L75706.4,-16499.4L75706.4,-16499.4L75706.4,-16499.5L75706.4,-16499.5L75706.3,-16499.5L75706.3,-16499.5L75706.3,-16499.5L75706.3,-16499.4L75706.3,-16499.4L75706.2,-16499.4L75706.2,-16499.4L75706.2,-16499.4L75706.2,-16499.4L75706.1,-16499.5L75706.1,-16499.5L75706.1,-16499.5L75706,-16499.5L75706,-16499.5L75705.9,-16499.5L75705.9,-16499.5L75705.8,-16499.5L75705.8,-16499.5L75705.7,-16499.5L75705.7,-16499.6L75705.6,-16499.6L75705.6,-16499.6L75705.5,-16499.6L75705.5,-16499.6L75705.4,-16499.7L75705.4,-16499.7L75705.3,-16499.7L75705.3,-16499.7L75705.3,-16499.8L75705.2,-16499.8L75705.2,-16499.8L75705.1,-16499.9L75705.1,-16499.9L75705,-16499.9L75705,-16500L75705,-16500L75704.9,-16500L75704.9,-16500.1L75704.9,-16500.1L75704.8,-16500.1L75704.8,-16500.2L75704.7,-16500.2L75704.7,-16500.3L75704.7,-16500.3L75704.6,-16500.4L75704.6,-16500.4L75704.6,-16500.4L75704.6,-16500.5L75704.5,-16500.5L75704.5,-16500.6L75704.5,-16500.6L75704.5,-16500.7L75704.4,-16500.7L75704.4,-16500.8L75704.4,-16500.8L75704.4,-16500.9L75704.4,-16500.9L75704.3,-16500.9L75704.3,-16501L75704.3,-16501L75704.3,-16501.1L75704.3,-16501.1L75704.3,-16501.2L75704.3,-16501.2L75704.3,-16501.3L75704.3,-16501.3L75704.3,-16501.3L75704.3,-16501.4L75704.3,-16501.4L75704.3,-16501.4L75704.3,-16501.4L75704.3,-16501.5L75704.3,-16501.5L75704.3,-16501.5L75704.3,-16501.5L75704.3,-16501.5L75704.3,-16501.6L75704.3,-16501.6L75704.3,-16501.6L75704.3,-16501.6L75704.3,-16501.7L75704.3,-16501.7L75704.3,-16501.7L75704.3,-16501.7L75704.3,-16501.8L75704.3,-16501.8L75704.3,-16501.9L75704.3,-16501.9L75704.3,-16502L75704.3,-16502L75704.3,-16502.1L75704.3,-16502.1L75704.4,-16502.2L75704.4,-16502.2L75704.4,-16502.2L75704.4,-16502.3L75704.4,-16502.3L75704.5,-16502.4L75704.5,-16502.4L75704.5,-16502.5L75704.5,-16502.5L75704.6,-16502.6L75704.6,-16502.6L75704.6,-16502.7L75704.6,-16502.7L75704.7,-16502.7L75704.7,-16502.8L75704.7,-16502.8L75704.8,-16502.9L75704.8,-16502.9L75704.9,-16502.9L75704.9,-16503L75704.9,-16503L75705,-16503.1L75705,-16503.1L75705,-16503.1L75705.1,-16503.2L75705.1,-16503.2L75705.2,-16503.2L75705.2,-16503.3L75705.3,-16503.3L75705.3,-16503.3L75705.3,-16503.3L75705.4,-16503.4L75705.4,-16503.4L75705.5,-16503.4L75705.5,-16503.4L75705.6,-16503.5L75705.6,-16503.5L75705.7,-16503.5L75705.7,-16503.5L75705.8,-16503.5L75705.8,-16503.5L75705.9,-16503.6L75705.9,-16503.6L75706,-16503.6L75706,-16503.6L75706.1,-16503.6L75706.1,-16503.6L75706.1,-16503.6L75706.2,-16503.6L75706.2,-16503.6L75706.2,-16503.6L75706.2,-16503.6L75706.3,-16503.6L75706.3,-16503.6L75706.3,-16503.6L75706.3,-16503.6L75706.3,-16503.6Z"/>
                    <path id="SPLINE60" serif:id="SPLINE" d="M75733.1,-16503.6C75732.1,-16503.7 75731,-16502.5 75731.1,-16501.5" style="fill:none;stroke:black;stroke-width:0.99px;"/>
                    <path id="SPLINE61" serif:id="SPLINE" d="M75731.1,-16501.5C75731,-16500.5 75732.1,-16499.4 75733.1,-16499.5" style="fill:none;stroke:black;stroke-width:0.99px;"/>
                    <path id="SPLINE62" serif:id="SPLINE" d="M75733.1,-16499.5C75734.2,-16499.4 75735.3,-16500.5 75735.2,-16501.5" style="fill:none;stroke:black;stroke-width:0.99px;"/>
                    <path id="SPLINE63" serif:id="SPLINE" d="M75735.2,-16501.5C75735.3,-16502.5 75734.2,-16503.7 75733.1,-16503.6" style="fill:none;stroke:black;stroke-width:0.99px;"/>
                    <path id="HATCH11" serif:id="HATCH" d="M75733.1,-16503.6L75733.2,-16503.6L75733.2,-16503.6L75733.2,-16503.6L75733.2,-16503.6L75733.3,-16503.6L75733.3,-16503.6L75733.3,-16503.6L75733.3,-16503.6L75733.4,-16503.6L75733.4,-16503.6L75733.4,-16503.6L75733.5,-16503.6L75733.5,-16503.6L75733.6,-16503.6L75733.6,-16503.6L75733.7,-16503.5L75733.7,-16503.5L75733.8,-16503.5L75733.8,-16503.5L75733.9,-16503.5L75733.9,-16503.5L75734,-16503.4L75734,-16503.4L75734.1,-16503.4L75734.1,-16503.4L75734.1,-16503.3L75734.2,-16503.3L75734.2,-16503.3L75734.3,-16503.3L75734.3,-16503.2L75734.4,-16503.2L75734.4,-16503.2L75734.4,-16503.1L75734.5,-16503.1L75734.5,-16503.1L75734.6,-16503L75734.6,-16503L75734.6,-16502.9L75734.7,-16502.9L75734.7,-16502.9L75734.7,-16502.8L75734.8,-16502.8L75734.8,-16502.7L75734.8,-16502.7L75734.9,-16502.7L75734.9,-16502.6L75734.9,-16502.6L75735,-16502.5L75735,-16502.5L75735,-16502.4L75735,-16502.4L75735.1,-16502.3L75735.1,-16502.3L75735.1,-16502.2L75735.1,-16502.2L75735.1,-16502.2L75735.1,-16502.1L75735.2,-16502.1L75735.2,-16502L75735.2,-16502L75735.2,-16501.9L75735.2,-16501.9L75735.2,-16501.8L75735.2,-16501.8L75735.2,-16501.7L75735.2,-16501.7L75735.2,-16501.7L75735.2,-16501.7L75735.2,-16501.6L75735.2,-16501.6L75735.2,-16501.6L75735.2,-16501.6L75735.2,-16501.5L75735.2,-16501.5L75735.2,-16501.5L75735.2,-16501.5L75735.2,-16501.5L75735.2,-16501.4L75735.2,-16501.4L75735.2,-16501.4L75735.2,-16501.4L75735.2,-16501.3L75735.2,-16501.3L75735.2,-16501.3L75735.2,-16501.2L75735.2,-16501.2L75735.2,-16501.1L75735.2,-16501.1L75735.2,-16501L75735.2,-16501L75735.1,-16500.9L75735.1,-16500.9L75735.1,-16500.9L75735.1,-16500.8L75735.1,-16500.8L75735.1,-16500.7L75735,-16500.7L75735,-16500.6L75735,-16500.6L75735,-16500.5L75734.9,-16500.5L75734.9,-16500.4L75734.9,-16500.4L75734.8,-16500.4L75734.8,-16500.3L75734.8,-16500.3L75734.7,-16500.2L75734.7,-16500.2L75734.7,-16500.1L75734.6,-16500.1L75734.6,-16500.1L75734.6,-16500L75734.5,-16500L75734.5,-16500L75734.4,-16499.9L75734.4,-16499.9L75734.4,-16499.9L75734.3,-16499.8L75734.3,-16499.8L75734.2,-16499.8L75734.2,-16499.7L75734.1,-16499.7L75734.1,-16499.7L75734.1,-16499.7L75734,-16499.6L75734,-16499.6L75733.9,-16499.6L75733.9,-16499.6L75733.8,-16499.6L75733.8,-16499.5L75733.7,-16499.5L75733.7,-16499.5L75733.6,-16499.5L75733.6,-16499.5L75733.5,-16499.5L75733.5,-16499.5L75733.4,-16499.5L75733.4,-16499.5L75733.4,-16499.5L75733.3,-16499.4L75733.3,-16499.4L75733.3,-16499.4L75733.3,-16499.4L75733.2,-16499.4L75733.2,-16499.4L75733.2,-16499.5L75733.2,-16499.5L75733.1,-16499.5L75733.1,-16499.5L75733.1,-16499.5L75733.1,-16499.4L75733,-16499.4L75733,-16499.4L75733,-16499.4L75733,-16499.4L75733,-16499.4L75732.9,-16499.5L75732.9,-16499.5L75732.9,-16499.5L75732.8,-16499.5L75732.8,-16499.5L75732.7,-16499.5L75732.7,-16499.5L75732.6,-16499.5L75732.6,-16499.5L75732.5,-16499.5L75732.5,-16499.6L75732.4,-16499.6L75732.4,-16499.6L75732.3,-16499.6L75732.3,-16499.6L75732.2,-16499.7L75732.2,-16499.7L75732.1,-16499.7L75732.1,-16499.7L75732.1,-16499.8L75732,-16499.8L75732,-16499.8L75731.9,-16499.9L75731.9,-16499.9L75731.8,-16499.9L75731.8,-16500L75731.8,-16500L75731.7,-16500L75731.7,-16500.1L75731.7,-16500.1L75731.6,-16500.1L75731.6,-16500.2L75731.5,-16500.2L75731.5,-16500.3L75731.5,-16500.3L75731.4,-16500.4L75731.4,-16500.4L75731.4,-16500.4L75731.4,-16500.5L75731.3,-16500.5L75731.3,-16500.6L75731.3,-16500.6L75731.3,-16500.7L75731.2,-16500.7L75731.2,-16500.8L75731.2,-16500.8L75731.2,-16500.9L75731.2,-16500.9L75731.1,-16500.9L75731.1,-16501L75731.1,-16501L75731.1,-16501.1L75731.1,-16501.1L75731.1,-16501.2L75731.1,-16501.2L75731.1,-16501.3L75731.1,-16501.3L75731.1,-16501.3L75731.1,-16501.4L75731.1,-16501.4L75731.1,-16501.4L75731.1,-16501.4L75731.1,-16501.5L75731.1,-16501.5L75731.1,-16501.5L75731.1,-16501.5L75731.1,-16501.5L75731.1,-16501.6L75731.1,-16501.6L75731.1,-16501.6L75731.1,-16501.6L75731.1,-16501.7L75731.1,-16501.7L75731.1,-16501.7L75731.1,-16501.7L75731.1,-16501.8L75731.1,-16501.8L75731.1,-16501.9L75731.1,-16501.9L75731.1,-16502L75731.1,-16502L75731.1,-16502.1L75731.1,-16502.1L75731.2,-16502.2L75731.2,-16502.2L75731.2,-16502.2L75731.2,-16502.3L75731.2,-16502.3L75731.3,-16502.4L75731.3,-16502.4L75731.3,-16502.5L75731.3,-16502.5L75731.4,-16502.6L75731.4,-16502.6L75731.4,-16502.7L75731.4,-16502.7L75731.5,-16502.7L75731.5,-16502.8L75731.5,-16502.8L75731.6,-16502.9L75731.6,-16502.9L75731.7,-16502.9L75731.7,-16503L75731.7,-16503L75731.8,-16503.1L75731.8,-16503.1L75731.8,-16503.1L75731.9,-16503.2L75731.9,-16503.2L75732,-16503.2L75732,-16503.3L75732.1,-16503.3L75732.1,-16503.3L75732.1,-16503.3L75732.2,-16503.4L75732.2,-16503.4L75732.3,-16503.4L75732.3,-16503.4L75732.4,-16503.5L75732.4,-16503.5L75732.5,-16503.5L75732.5,-16503.5L75732.6,-16503.5L75732.6,-16503.5L75732.7,-16503.6L75732.7,-16503.6L75732.8,-16503.6L75732.8,-16503.6L75732.9,-16503.6L75732.9,-16503.6L75732.9,-16503.6L75733,-16503.6L75733,-16503.6L75733,-16503.6L75733,-16503.6L75733,-16503.6L75733.1,-16503.6L75733.1,-16503.6L75733.1,-16503.6L75733.1,-16503.6Z"/>
                    <path id="_2DPOLYLINE" serif:id="2DPOLYLINE" d="M75555.8,-16161L75555.8,-15967" style="fill:none;stroke:black;stroke-width:0.71px;"/>
                    <path id="CIRCLE" d="M75555.8,-15929.5C75564.4,-15929.5 75571.4,-15936.5 75571.4,-15945.1C75571.4,-15953.8 75564.4,-15960.8 75555.8,-15960.8C75547.2,-15960.8 75540.2,-15953.8 75540.2,-15945.1C75540.2,-15936.5 75547.2,-15929.5 75555.8,-15929.5Z" style="fill:none;stroke:black;stroke-width:0.71px;"/>
                    <path id="_2DPOLYLINE1" serif:id="2DPOLYLINE" d="M75555.8,-15729.3L75555.8,-15923.3" style="fill:none;stroke:black;stroke-width:0.71px;"/>
                    <path id="_2DPOLYLINE2" serif:id="2DPOLYLINE" d="M75582.6,-16161L75582.6,-15729.6" style="fill:none;stroke:black;stroke-width:0.71px;"/>
                    <path id="LINE8" serif:id="LINE" d="M75555.8,-15945.1L75546.1,-15953.9" style="fill:none;stroke:black;stroke-width:0.71px;"/>
                </g>
            </g>
        </g>
    </g>
</svg>
